%TF.GenerationSoftware,KiCad,Pcbnew,7.0.11+dfsg-1build4*%
%TF.CreationDate,2026-09-29T18:52:29+02:00*%
%TF.ProjectId,RetroPower_Compact,52657472-6f50-46f7-9765-725f436f6d70,rev?*%
%TF.SameCoordinates,Original*%
%TF.FileFunction,Legend,Top*%
%TF.FilePolarity,Positive*%
%FSLAX46Y46*%
G04 Gerber Fmt 4.6, Leading zero omitted, Abs format (unit mm)*
G04 Created by KiCad (PCBNEW 7.0.11+dfsg-1build4) date 2026-09-29 18:52:29*
%MOMM*%
%LPD*%
G01*
G04 APERTURE LIST*
%ADD10C,0.150000*%
%ADD11C,0.120000*%
G04 APERTURE END LIST*
D10*
X28929819Y-27141666D02*
X28453628Y-27474999D01*
X28929819Y-27713094D02*
X27929819Y-27713094D01*
X27929819Y-27713094D02*
X27929819Y-27332142D01*
X27929819Y-27332142D02*
X27977438Y-27236904D01*
X27977438Y-27236904D02*
X28025057Y-27189285D01*
X28025057Y-27189285D02*
X28120295Y-27141666D01*
X28120295Y-27141666D02*
X28263152Y-27141666D01*
X28263152Y-27141666D02*
X28358390Y-27189285D01*
X28358390Y-27189285D02*
X28406009Y-27236904D01*
X28406009Y-27236904D02*
X28453628Y-27332142D01*
X28453628Y-27332142D02*
X28453628Y-27713094D01*
X28263152Y-26284523D02*
X28929819Y-26284523D01*
X27882200Y-26522618D02*
X28596485Y-26760713D01*
X28596485Y-26760713D02*
X28596485Y-26141666D01*
X8179819Y-3658333D02*
X8894104Y-3658333D01*
X8894104Y-3658333D02*
X9036961Y-3705952D01*
X9036961Y-3705952D02*
X9132200Y-3801190D01*
X9132200Y-3801190D02*
X9179819Y-3944047D01*
X9179819Y-3944047D02*
X9179819Y-4039285D01*
X8179819Y-3277380D02*
X8179819Y-2658333D01*
X8179819Y-2658333D02*
X8560771Y-2991666D01*
X8560771Y-2991666D02*
X8560771Y-2848809D01*
X8560771Y-2848809D02*
X8608390Y-2753571D01*
X8608390Y-2753571D02*
X8656009Y-2705952D01*
X8656009Y-2705952D02*
X8751247Y-2658333D01*
X8751247Y-2658333D02*
X8989342Y-2658333D01*
X8989342Y-2658333D02*
X9084580Y-2705952D01*
X9084580Y-2705952D02*
X9132200Y-2753571D01*
X9132200Y-2753571D02*
X9179819Y-2848809D01*
X9179819Y-2848809D02*
X9179819Y-3134523D01*
X9179819Y-3134523D02*
X9132200Y-3229761D01*
X9132200Y-3229761D02*
X9084580Y-3277380D01*
X16196905Y-16429819D02*
X16196905Y-15429819D01*
X16768333Y-16429819D02*
X16339762Y-15858390D01*
X16768333Y-15429819D02*
X16196905Y-16001247D01*
X17720714Y-16429819D02*
X17149286Y-16429819D01*
X17435000Y-16429819D02*
X17435000Y-15429819D01*
X17435000Y-15429819D02*
X17339762Y-15572676D01*
X17339762Y-15572676D02*
X17244524Y-15667914D01*
X17244524Y-15667914D02*
X17149286Y-15715533D01*
X28929819Y-4141666D02*
X28453628Y-4474999D01*
X28929819Y-4713094D02*
X27929819Y-4713094D01*
X27929819Y-4713094D02*
X27929819Y-4332142D01*
X27929819Y-4332142D02*
X27977438Y-4236904D01*
X27977438Y-4236904D02*
X28025057Y-4189285D01*
X28025057Y-4189285D02*
X28120295Y-4141666D01*
X28120295Y-4141666D02*
X28263152Y-4141666D01*
X28263152Y-4141666D02*
X28358390Y-4189285D01*
X28358390Y-4189285D02*
X28406009Y-4236904D01*
X28406009Y-4236904D02*
X28453628Y-4332142D01*
X28453628Y-4332142D02*
X28453628Y-4713094D01*
X28929819Y-3189285D02*
X28929819Y-3760713D01*
X28929819Y-3474999D02*
X27929819Y-3474999D01*
X27929819Y-3474999D02*
X28072676Y-3570237D01*
X28072676Y-3570237D02*
X28167914Y-3665475D01*
X28167914Y-3665475D02*
X28215533Y-3760713D01*
X28929819Y-12141666D02*
X28453628Y-12474999D01*
X28929819Y-12713094D02*
X27929819Y-12713094D01*
X27929819Y-12713094D02*
X27929819Y-12332142D01*
X27929819Y-12332142D02*
X27977438Y-12236904D01*
X27977438Y-12236904D02*
X28025057Y-12189285D01*
X28025057Y-12189285D02*
X28120295Y-12141666D01*
X28120295Y-12141666D02*
X28263152Y-12141666D01*
X28263152Y-12141666D02*
X28358390Y-12189285D01*
X28358390Y-12189285D02*
X28406009Y-12236904D01*
X28406009Y-12236904D02*
X28453628Y-12332142D01*
X28453628Y-12332142D02*
X28453628Y-12713094D01*
X27929819Y-11808332D02*
X27929819Y-11189285D01*
X27929819Y-11189285D02*
X28310771Y-11522618D01*
X28310771Y-11522618D02*
X28310771Y-11379761D01*
X28310771Y-11379761D02*
X28358390Y-11284523D01*
X28358390Y-11284523D02*
X28406009Y-11236904D01*
X28406009Y-11236904D02*
X28501247Y-11189285D01*
X28501247Y-11189285D02*
X28739342Y-11189285D01*
X28739342Y-11189285D02*
X28834580Y-11236904D01*
X28834580Y-11236904D02*
X28882200Y-11284523D01*
X28882200Y-11284523D02*
X28929819Y-11379761D01*
X28929819Y-11379761D02*
X28929819Y-11665475D01*
X28929819Y-11665475D02*
X28882200Y-11760713D01*
X28882200Y-11760713D02*
X28834580Y-11808332D01*
X23275057Y-9070238D02*
X23227438Y-9165476D01*
X23227438Y-9165476D02*
X23132200Y-9260714D01*
X23132200Y-9260714D02*
X22989342Y-9403571D01*
X22989342Y-9403571D02*
X22941723Y-9498809D01*
X22941723Y-9498809D02*
X22941723Y-9594047D01*
X23179819Y-9546428D02*
X23132200Y-9641666D01*
X23132200Y-9641666D02*
X23036961Y-9736904D01*
X23036961Y-9736904D02*
X22846485Y-9784523D01*
X22846485Y-9784523D02*
X22513152Y-9784523D01*
X22513152Y-9784523D02*
X22322676Y-9736904D01*
X22322676Y-9736904D02*
X22227438Y-9641666D01*
X22227438Y-9641666D02*
X22179819Y-9546428D01*
X22179819Y-9546428D02*
X22179819Y-9355952D01*
X22179819Y-9355952D02*
X22227438Y-9260714D01*
X22227438Y-9260714D02*
X22322676Y-9165476D01*
X22322676Y-9165476D02*
X22513152Y-9117857D01*
X22513152Y-9117857D02*
X22846485Y-9117857D01*
X22846485Y-9117857D02*
X23036961Y-9165476D01*
X23036961Y-9165476D02*
X23132200Y-9260714D01*
X23132200Y-9260714D02*
X23179819Y-9355952D01*
X23179819Y-9355952D02*
X23179819Y-9546428D01*
X23179819Y-8165476D02*
X23179819Y-8736904D01*
X23179819Y-8451190D02*
X22179819Y-8451190D01*
X22179819Y-8451190D02*
X22322676Y-8546428D01*
X22322676Y-8546428D02*
X22417914Y-8641666D01*
X22417914Y-8641666D02*
X22465533Y-8736904D01*
X23275057Y-21070238D02*
X23227438Y-21165476D01*
X23227438Y-21165476D02*
X23132200Y-21260714D01*
X23132200Y-21260714D02*
X22989342Y-21403571D01*
X22989342Y-21403571D02*
X22941723Y-21498809D01*
X22941723Y-21498809D02*
X22941723Y-21594047D01*
X23179819Y-21546428D02*
X23132200Y-21641666D01*
X23132200Y-21641666D02*
X23036961Y-21736904D01*
X23036961Y-21736904D02*
X22846485Y-21784523D01*
X22846485Y-21784523D02*
X22513152Y-21784523D01*
X22513152Y-21784523D02*
X22322676Y-21736904D01*
X22322676Y-21736904D02*
X22227438Y-21641666D01*
X22227438Y-21641666D02*
X22179819Y-21546428D01*
X22179819Y-21546428D02*
X22179819Y-21355952D01*
X22179819Y-21355952D02*
X22227438Y-21260714D01*
X22227438Y-21260714D02*
X22322676Y-21165476D01*
X22322676Y-21165476D02*
X22513152Y-21117857D01*
X22513152Y-21117857D02*
X22846485Y-21117857D01*
X22846485Y-21117857D02*
X23036961Y-21165476D01*
X23036961Y-21165476D02*
X23132200Y-21260714D01*
X23132200Y-21260714D02*
X23179819Y-21355952D01*
X23179819Y-21355952D02*
X23179819Y-21546428D01*
X22275057Y-20736904D02*
X22227438Y-20689285D01*
X22227438Y-20689285D02*
X22179819Y-20594047D01*
X22179819Y-20594047D02*
X22179819Y-20355952D01*
X22179819Y-20355952D02*
X22227438Y-20260714D01*
X22227438Y-20260714D02*
X22275057Y-20213095D01*
X22275057Y-20213095D02*
X22370295Y-20165476D01*
X22370295Y-20165476D02*
X22465533Y-20165476D01*
X22465533Y-20165476D02*
X22608390Y-20213095D01*
X22608390Y-20213095D02*
X23179819Y-20784523D01*
X23179819Y-20784523D02*
X23179819Y-20165476D01*
X22386905Y-26929819D02*
X22386905Y-25929819D01*
X22386905Y-25929819D02*
X22625000Y-25929819D01*
X22625000Y-25929819D02*
X22767857Y-25977438D01*
X22767857Y-25977438D02*
X22863095Y-26072676D01*
X22863095Y-26072676D02*
X22910714Y-26167914D01*
X22910714Y-26167914D02*
X22958333Y-26358390D01*
X22958333Y-26358390D02*
X22958333Y-26501247D01*
X22958333Y-26501247D02*
X22910714Y-26691723D01*
X22910714Y-26691723D02*
X22863095Y-26786961D01*
X22863095Y-26786961D02*
X22767857Y-26882200D01*
X22767857Y-26882200D02*
X22625000Y-26929819D01*
X22625000Y-26929819D02*
X22386905Y-26929819D01*
X23339286Y-26025057D02*
X23386905Y-25977438D01*
X23386905Y-25977438D02*
X23482143Y-25929819D01*
X23482143Y-25929819D02*
X23720238Y-25929819D01*
X23720238Y-25929819D02*
X23815476Y-25977438D01*
X23815476Y-25977438D02*
X23863095Y-26025057D01*
X23863095Y-26025057D02*
X23910714Y-26120295D01*
X23910714Y-26120295D02*
X23910714Y-26215533D01*
X23910714Y-26215533D02*
X23863095Y-26358390D01*
X23863095Y-26358390D02*
X23291667Y-26929819D01*
X23291667Y-26929819D02*
X23910714Y-26929819D01*
X14958333Y-30534580D02*
X14910714Y-30582200D01*
X14910714Y-30582200D02*
X14767857Y-30629819D01*
X14767857Y-30629819D02*
X14672619Y-30629819D01*
X14672619Y-30629819D02*
X14529762Y-30582200D01*
X14529762Y-30582200D02*
X14434524Y-30486961D01*
X14434524Y-30486961D02*
X14386905Y-30391723D01*
X14386905Y-30391723D02*
X14339286Y-30201247D01*
X14339286Y-30201247D02*
X14339286Y-30058390D01*
X14339286Y-30058390D02*
X14386905Y-29867914D01*
X14386905Y-29867914D02*
X14434524Y-29772676D01*
X14434524Y-29772676D02*
X14529762Y-29677438D01*
X14529762Y-29677438D02*
X14672619Y-29629819D01*
X14672619Y-29629819D02*
X14767857Y-29629819D01*
X14767857Y-29629819D02*
X14910714Y-29677438D01*
X14910714Y-29677438D02*
X14958333Y-29725057D01*
X15339286Y-29725057D02*
X15386905Y-29677438D01*
X15386905Y-29677438D02*
X15482143Y-29629819D01*
X15482143Y-29629819D02*
X15720238Y-29629819D01*
X15720238Y-29629819D02*
X15815476Y-29677438D01*
X15815476Y-29677438D02*
X15863095Y-29725057D01*
X15863095Y-29725057D02*
X15910714Y-29820295D01*
X15910714Y-29820295D02*
X15910714Y-29915533D01*
X15910714Y-29915533D02*
X15863095Y-30058390D01*
X15863095Y-30058390D02*
X15291667Y-30629819D01*
X15291667Y-30629819D02*
X15910714Y-30629819D01*
X17346905Y-2429819D02*
X17346905Y-1429819D01*
X17346905Y-1429819D02*
X17585000Y-1429819D01*
X17585000Y-1429819D02*
X17727857Y-1477438D01*
X17727857Y-1477438D02*
X17823095Y-1572676D01*
X17823095Y-1572676D02*
X17870714Y-1667914D01*
X17870714Y-1667914D02*
X17918333Y-1858390D01*
X17918333Y-1858390D02*
X17918333Y-2001247D01*
X17918333Y-2001247D02*
X17870714Y-2191723D01*
X17870714Y-2191723D02*
X17823095Y-2286961D01*
X17823095Y-2286961D02*
X17727857Y-2382200D01*
X17727857Y-2382200D02*
X17585000Y-2429819D01*
X17585000Y-2429819D02*
X17346905Y-2429819D01*
X18251667Y-1429819D02*
X18870714Y-1429819D01*
X18870714Y-1429819D02*
X18537381Y-1810771D01*
X18537381Y-1810771D02*
X18680238Y-1810771D01*
X18680238Y-1810771D02*
X18775476Y-1858390D01*
X18775476Y-1858390D02*
X18823095Y-1906009D01*
X18823095Y-1906009D02*
X18870714Y-2001247D01*
X18870714Y-2001247D02*
X18870714Y-2239342D01*
X18870714Y-2239342D02*
X18823095Y-2334580D01*
X18823095Y-2334580D02*
X18775476Y-2382200D01*
X18775476Y-2382200D02*
X18680238Y-2429819D01*
X18680238Y-2429819D02*
X18394524Y-2429819D01*
X18394524Y-2429819D02*
X18299286Y-2382200D01*
X18299286Y-2382200D02*
X18251667Y-2334580D01*
X2249819Y-29708333D02*
X2964104Y-29708333D01*
X2964104Y-29708333D02*
X3106961Y-29755952D01*
X3106961Y-29755952D02*
X3202200Y-29851190D01*
X3202200Y-29851190D02*
X3249819Y-29994047D01*
X3249819Y-29994047D02*
X3249819Y-30089285D01*
X2345057Y-29279761D02*
X2297438Y-29232142D01*
X2297438Y-29232142D02*
X2249819Y-29136904D01*
X2249819Y-29136904D02*
X2249819Y-28898809D01*
X2249819Y-28898809D02*
X2297438Y-28803571D01*
X2297438Y-28803571D02*
X2345057Y-28755952D01*
X2345057Y-28755952D02*
X2440295Y-28708333D01*
X2440295Y-28708333D02*
X2535533Y-28708333D01*
X2535533Y-28708333D02*
X2678390Y-28755952D01*
X2678390Y-28755952D02*
X3249819Y-29327380D01*
X3249819Y-29327380D02*
X3249819Y-28708333D01*
X28929819Y-18141666D02*
X28453628Y-18474999D01*
X28929819Y-18713094D02*
X27929819Y-18713094D01*
X27929819Y-18713094D02*
X27929819Y-18332142D01*
X27929819Y-18332142D02*
X27977438Y-18236904D01*
X27977438Y-18236904D02*
X28025057Y-18189285D01*
X28025057Y-18189285D02*
X28120295Y-18141666D01*
X28120295Y-18141666D02*
X28263152Y-18141666D01*
X28263152Y-18141666D02*
X28358390Y-18189285D01*
X28358390Y-18189285D02*
X28406009Y-18236904D01*
X28406009Y-18236904D02*
X28453628Y-18332142D01*
X28453628Y-18332142D02*
X28453628Y-18713094D01*
X28025057Y-17760713D02*
X27977438Y-17713094D01*
X27977438Y-17713094D02*
X27929819Y-17617856D01*
X27929819Y-17617856D02*
X27929819Y-17379761D01*
X27929819Y-17379761D02*
X27977438Y-17284523D01*
X27977438Y-17284523D02*
X28025057Y-17236904D01*
X28025057Y-17236904D02*
X28120295Y-17189285D01*
X28120295Y-17189285D02*
X28215533Y-17189285D01*
X28215533Y-17189285D02*
X28358390Y-17236904D01*
X28358390Y-17236904D02*
X28929819Y-17808332D01*
X28929819Y-17808332D02*
X28929819Y-17189285D01*
X33391666Y-16029819D02*
X33391666Y-16744104D01*
X33391666Y-16744104D02*
X33344047Y-16886961D01*
X33344047Y-16886961D02*
X33248809Y-16982200D01*
X33248809Y-16982200D02*
X33105952Y-17029819D01*
X33105952Y-17029819D02*
X33010714Y-17029819D01*
X34344047Y-16029819D02*
X33867857Y-16029819D01*
X33867857Y-16029819D02*
X33820238Y-16506009D01*
X33820238Y-16506009D02*
X33867857Y-16458390D01*
X33867857Y-16458390D02*
X33963095Y-16410771D01*
X33963095Y-16410771D02*
X34201190Y-16410771D01*
X34201190Y-16410771D02*
X34296428Y-16458390D01*
X34296428Y-16458390D02*
X34344047Y-16506009D01*
X34344047Y-16506009D02*
X34391666Y-16601247D01*
X34391666Y-16601247D02*
X34391666Y-16839342D01*
X34391666Y-16839342D02*
X34344047Y-16934580D01*
X34344047Y-16934580D02*
X34296428Y-16982200D01*
X34296428Y-16982200D02*
X34201190Y-17029819D01*
X34201190Y-17029819D02*
X33963095Y-17029819D01*
X33963095Y-17029819D02*
X33867857Y-16982200D01*
X33867857Y-16982200D02*
X33820238Y-16934580D01*
X6791666Y-4099819D02*
X6791666Y-4814104D01*
X6791666Y-4814104D02*
X6744047Y-4956961D01*
X6744047Y-4956961D02*
X6648809Y-5052200D01*
X6648809Y-5052200D02*
X6505952Y-5099819D01*
X6505952Y-5099819D02*
X6410714Y-5099819D01*
X7791666Y-5099819D02*
X7220238Y-5099819D01*
X7505952Y-5099819D02*
X7505952Y-4099819D01*
X7505952Y-4099819D02*
X7410714Y-4242676D01*
X7410714Y-4242676D02*
X7315476Y-4337914D01*
X7315476Y-4337914D02*
X7220238Y-4385533D01*
X33391666Y-25029819D02*
X33391666Y-25744104D01*
X33391666Y-25744104D02*
X33344047Y-25886961D01*
X33344047Y-25886961D02*
X33248809Y-25982200D01*
X33248809Y-25982200D02*
X33105952Y-26029819D01*
X33105952Y-26029819D02*
X33010714Y-26029819D01*
X34296428Y-25029819D02*
X34105952Y-25029819D01*
X34105952Y-25029819D02*
X34010714Y-25077438D01*
X34010714Y-25077438D02*
X33963095Y-25125057D01*
X33963095Y-25125057D02*
X33867857Y-25267914D01*
X33867857Y-25267914D02*
X33820238Y-25458390D01*
X33820238Y-25458390D02*
X33820238Y-25839342D01*
X33820238Y-25839342D02*
X33867857Y-25934580D01*
X33867857Y-25934580D02*
X33915476Y-25982200D01*
X33915476Y-25982200D02*
X34010714Y-26029819D01*
X34010714Y-26029819D02*
X34201190Y-26029819D01*
X34201190Y-26029819D02*
X34296428Y-25982200D01*
X34296428Y-25982200D02*
X34344047Y-25934580D01*
X34344047Y-25934580D02*
X34391666Y-25839342D01*
X34391666Y-25839342D02*
X34391666Y-25601247D01*
X34391666Y-25601247D02*
X34344047Y-25506009D01*
X34344047Y-25506009D02*
X34296428Y-25458390D01*
X34296428Y-25458390D02*
X34201190Y-25410771D01*
X34201190Y-25410771D02*
X34010714Y-25410771D01*
X34010714Y-25410771D02*
X33915476Y-25458390D01*
X33915476Y-25458390D02*
X33867857Y-25506009D01*
X33867857Y-25506009D02*
X33820238Y-25601247D01*
X36791666Y-5099819D02*
X36791666Y-5814104D01*
X36791666Y-5814104D02*
X36744047Y-5956961D01*
X36744047Y-5956961D02*
X36648809Y-6052200D01*
X36648809Y-6052200D02*
X36505952Y-6099819D01*
X36505952Y-6099819D02*
X36410714Y-6099819D01*
X37696428Y-5433152D02*
X37696428Y-6099819D01*
X37458333Y-5052200D02*
X37220238Y-5766485D01*
X37220238Y-5766485D02*
X37839285Y-5766485D01*
X22386905Y-2429819D02*
X22386905Y-1429819D01*
X22386905Y-1429819D02*
X22625000Y-1429819D01*
X22625000Y-1429819D02*
X22767857Y-1477438D01*
X22767857Y-1477438D02*
X22863095Y-1572676D01*
X22863095Y-1572676D02*
X22910714Y-1667914D01*
X22910714Y-1667914D02*
X22958333Y-1858390D01*
X22958333Y-1858390D02*
X22958333Y-2001247D01*
X22958333Y-2001247D02*
X22910714Y-2191723D01*
X22910714Y-2191723D02*
X22863095Y-2286961D01*
X22863095Y-2286961D02*
X22767857Y-2382200D01*
X22767857Y-2382200D02*
X22625000Y-2429819D01*
X22625000Y-2429819D02*
X22386905Y-2429819D01*
X23910714Y-2429819D02*
X23339286Y-2429819D01*
X23625000Y-2429819D02*
X23625000Y-1429819D01*
X23625000Y-1429819D02*
X23529762Y-1572676D01*
X23529762Y-1572676D02*
X23434524Y-1667914D01*
X23434524Y-1667914D02*
X23339286Y-1715533D01*
X7033332Y-26334580D02*
X6985713Y-26382200D01*
X6985713Y-26382200D02*
X6842856Y-26429819D01*
X6842856Y-26429819D02*
X6747618Y-26429819D01*
X6747618Y-26429819D02*
X6604761Y-26382200D01*
X6604761Y-26382200D02*
X6509523Y-26286961D01*
X6509523Y-26286961D02*
X6461904Y-26191723D01*
X6461904Y-26191723D02*
X6414285Y-26001247D01*
X6414285Y-26001247D02*
X6414285Y-25858390D01*
X6414285Y-25858390D02*
X6461904Y-25667914D01*
X6461904Y-25667914D02*
X6509523Y-25572676D01*
X6509523Y-25572676D02*
X6604761Y-25477438D01*
X6604761Y-25477438D02*
X6747618Y-25429819D01*
X6747618Y-25429819D02*
X6842856Y-25429819D01*
X6842856Y-25429819D02*
X6985713Y-25477438D01*
X6985713Y-25477438D02*
X7033332Y-25525057D01*
X7985713Y-26429819D02*
X7414285Y-26429819D01*
X7699999Y-26429819D02*
X7699999Y-25429819D01*
X7699999Y-25429819D02*
X7604761Y-25572676D01*
X7604761Y-25572676D02*
X7509523Y-25667914D01*
X7509523Y-25667914D02*
X7414285Y-25715533D01*
D11*
%TO.C,R4*%
X29390000Y-27202064D02*
X29390000Y-26747936D01*
X30860000Y-27202064D02*
X30860000Y-26747936D01*
%TO.C,J3*%
X9725000Y-4655000D02*
X9725000Y-3325000D01*
X11055000Y-4655000D02*
X9725000Y-4655000D01*
X12325000Y-4655000D02*
X14925000Y-4655000D01*
X12325000Y-4655000D02*
X12325000Y-1995000D01*
X14925000Y-4655000D02*
X14925000Y-1995000D01*
X12325000Y-1995000D02*
X14925000Y-1995000D01*
%TO.C,K1*%
X14285000Y-5645000D02*
X14285000Y-26085000D01*
X14285000Y-26085000D02*
X19585000Y-26085000D01*
X15935000Y-5645000D02*
X14285000Y-5645000D01*
X19585000Y-5645000D02*
X17935000Y-5645000D01*
X19585000Y-26085000D02*
X19585000Y-5645000D01*
X15935000Y-5645000D02*
G75*
G03*
X17935000Y-5645000I1000000J0D01*
G01*
%TO.C,R1*%
X29390000Y-4202064D02*
X29390000Y-3747936D01*
X30860000Y-4202064D02*
X30860000Y-3747936D01*
%TO.C,R3*%
X29390000Y-12202064D02*
X29390000Y-11747936D01*
X30860000Y-12202064D02*
X30860000Y-11747936D01*
%TO.C,Q1*%
X23565000Y-8975000D02*
X23565000Y-9625000D01*
X23565000Y-8975000D02*
X23565000Y-8325000D01*
X26685000Y-8975000D02*
X26685000Y-9625000D01*
X26685000Y-8975000D02*
X26685000Y-8325000D01*
X23615000Y-10137500D02*
X23285000Y-10377500D01*
X23285000Y-9897500D01*
X23615000Y-10137500D01*
G36*
X23615000Y-10137500D02*
G01*
X23285000Y-10377500D01*
X23285000Y-9897500D01*
X23615000Y-10137500D01*
G37*
%TO.C,Q2*%
X23565000Y-20975000D02*
X23565000Y-21625000D01*
X23565000Y-20975000D02*
X23565000Y-20325000D01*
X26685000Y-20975000D02*
X26685000Y-21625000D01*
X26685000Y-20975000D02*
X26685000Y-20325000D01*
X23615000Y-22137500D02*
X23285000Y-22377500D01*
X23285000Y-21897500D01*
X23615000Y-22137500D01*
G36*
X23615000Y-22137500D02*
G01*
X23285000Y-22377500D01*
X23285000Y-21897500D01*
X23615000Y-22137500D01*
G37*
%TO.C,D2*%
X20765000Y-27475000D02*
X20765000Y-29475000D01*
X20765000Y-27475000D02*
X24775000Y-27475000D01*
X20765000Y-29475000D02*
X24775000Y-29475000D01*
%TO.C,C2*%
X14863748Y-27240000D02*
X15386252Y-27240000D01*
X14863748Y-28710000D02*
X15386252Y-28710000D01*
%TO.C,D3*%
X15725000Y-2975000D02*
X15725000Y-4975000D01*
X15725000Y-2975000D02*
X19735000Y-2975000D01*
X15725000Y-4975000D02*
X19735000Y-4975000D01*
%TO.C,J2*%
X3795000Y-30705000D02*
X3795000Y-29375000D01*
X5125000Y-30705000D02*
X3795000Y-30705000D01*
X6395000Y-30705000D02*
X8995000Y-30705000D01*
X6395000Y-30705000D02*
X6395000Y-28045000D01*
X8995000Y-30705000D02*
X8995000Y-28045000D01*
X6395000Y-28045000D02*
X8995000Y-28045000D01*
%TO.C,R2*%
X29390000Y-18202064D02*
X29390000Y-17747936D01*
X30860000Y-18202064D02*
X30860000Y-17747936D01*
%TO.C,J5*%
X35795000Y-15645000D02*
X37125000Y-15645000D01*
X35795000Y-16975000D02*
X35795000Y-15645000D01*
X35795000Y-18245000D02*
X35795000Y-23385000D01*
X35795000Y-18245000D02*
X38455000Y-18245000D01*
X35795000Y-23385000D02*
X38455000Y-23385000D01*
X38455000Y-18245000D02*
X38455000Y-23385000D01*
%TO.C,J1*%
X5795000Y-5645000D02*
X7125000Y-5645000D01*
X5795000Y-6975000D02*
X5795000Y-5645000D01*
X5795000Y-8245000D02*
X5795000Y-18465000D01*
X5795000Y-8245000D02*
X8455000Y-8245000D01*
X5795000Y-18465000D02*
X8455000Y-18465000D01*
X8455000Y-8245000D02*
X8455000Y-18465000D01*
%TO.C,J6*%
X35795000Y-24645000D02*
X37125000Y-24645000D01*
X35795000Y-25975000D02*
X35795000Y-24645000D01*
X35795000Y-27245000D02*
X35795000Y-29845000D01*
X35795000Y-27245000D02*
X38455000Y-27245000D01*
X35795000Y-29845000D02*
X38455000Y-29845000D01*
X38455000Y-27245000D02*
X38455000Y-29845000D01*
%TO.C,J4*%
X35795000Y-6645000D02*
X37125000Y-6645000D01*
X35795000Y-7975000D02*
X35795000Y-6645000D01*
X35795000Y-9245000D02*
X35795000Y-14385000D01*
X35795000Y-9245000D02*
X38455000Y-9245000D01*
X35795000Y-14385000D02*
X38455000Y-14385000D01*
X38455000Y-9245000D02*
X38455000Y-14385000D01*
%TO.C,D1*%
X20765000Y-2975000D02*
X20765000Y-4975000D01*
X20765000Y-2975000D02*
X24775000Y-2975000D01*
X20765000Y-4975000D02*
X24775000Y-4975000D01*
%TO.C,C1*%
X1887500Y-21527500D02*
X2675000Y-21527500D01*
X2281250Y-21133750D02*
X2281250Y-21921250D01*
X2915000Y-21029437D02*
X2915000Y-22315000D01*
X2915000Y-21029437D02*
X3979437Y-19965000D01*
X2915000Y-25720563D02*
X2915000Y-24435000D01*
X2915000Y-25720563D02*
X3979437Y-26785000D01*
X3979437Y-19965000D02*
X9735000Y-19965000D01*
X3979437Y-26785000D02*
X9735000Y-26785000D01*
X9735000Y-19965000D02*
X9735000Y-22315000D01*
X9735000Y-26785000D02*
X9735000Y-24435000D01*
%TD*%
M02*
