%TF.GenerationSoftware,KiCad,Pcbnew,7.0.11+dfsg-1build4*%
%TF.CreationDate,2026-09-29T18:52:29+02:00*%
%TF.ProjectId,RetroPower_Compact,52657472-6f50-46f7-9765-725f436f6d70,rev?*%
%TF.SameCoordinates,Original*%
%TF.FileFunction,Copper,L1,Top*%
%TF.FilePolarity,Positive*%
%FSLAX46Y46*%
G04 Gerber Fmt 4.6, Leading zero omitted, Abs format (unit mm)*
G04 Created by KiCad (PCBNEW 7.0.11+dfsg-1build4) date 2026-09-29 18:52:29*
%MOMM*%
%LPD*%
G01*
G04 APERTURE LIST*
G04 Aperture macros list*
%AMRoundRect*
0 Rectangle with rounded corners*
0 $1 Rounding radius*
0 $2 $3 $4 $5 $6 $7 $8 $9 X,Y pos of 4 corners*
0 Add a 4 corners polygon primitive as box body*
4,1,4,$2,$3,$4,$5,$6,$7,$8,$9,$2,$3,0*
0 Add four circle primitives for the rounded corners*
1,1,$1+$1,$2,$3*
1,1,$1+$1,$4,$5*
1,1,$1+$1,$6,$7*
1,1,$1+$1,$8,$9*
0 Add four rect primitives between the rounded corners*
20,1,$1+$1,$2,$3,$4,$5,0*
20,1,$1+$1,$4,$5,$6,$7,0*
20,1,$1+$1,$6,$7,$8,$9,0*
20,1,$1+$1,$8,$9,$2,$3,0*%
G04 Aperture macros list end*
%TA.AperFunction,SMDPad,CuDef*%
%ADD10RoundRect,0.250000X0.450000X-0.262500X0.450000X0.262500X-0.450000X0.262500X-0.450000X-0.262500X0*%
%TD*%
%TA.AperFunction,ComponentPad*%
%ADD11R,1.700000X1.700000*%
%TD*%
%TA.AperFunction,ComponentPad*%
%ADD12O,1.700000X1.700000*%
%TD*%
%TA.AperFunction,ComponentPad*%
%ADD13R,1.600000X1.600000*%
%TD*%
%TA.AperFunction,ComponentPad*%
%ADD14O,1.600000X1.600000*%
%TD*%
%TA.AperFunction,SMDPad,CuDef*%
%ADD15RoundRect,0.150000X0.150000X-0.587500X0.150000X0.587500X-0.150000X0.587500X-0.150000X-0.587500X0*%
%TD*%
%TA.AperFunction,SMDPad,CuDef*%
%ADD16RoundRect,0.225000X-0.225000X-0.375000X0.225000X-0.375000X0.225000X0.375000X-0.225000X0.375000X0*%
%TD*%
%TA.AperFunction,SMDPad,CuDef*%
%ADD17RoundRect,0.250000X-0.250000X-0.475000X0.250000X-0.475000X0.250000X0.475000X-0.250000X0.475000X0*%
%TD*%
%TA.AperFunction,SMDPad,CuDef*%
%ADD18RoundRect,0.250000X-1.500000X-0.550000X1.500000X-0.550000X1.500000X0.550000X-1.500000X0.550000X0*%
%TD*%
%TA.AperFunction,ViaPad*%
%ADD19C,0.800000*%
%TD*%
%TA.AperFunction,Conductor*%
%ADD20C,0.350000*%
%TD*%
G04 APERTURE END LIST*
D10*
%TO.P,R4,1*%
%TO.N,Q2_GATE*%
X30125000Y-27887500D03*
%TO.P,R4,2*%
%TO.N,GND*%
X30125000Y-26062500D03*
%TD*%
D11*
%TO.P,J3,1*%
%TO.N,RAW_IN*%
X11055000Y-3325000D03*
D12*
%TO.P,J3,2*%
%TO.N,GND*%
X13595000Y-3325000D03*
%TD*%
D13*
%TO.P,K1,1*%
%TO.N,3V3*%
X13125000Y-6975000D03*
D14*
%TO.P,K1,2*%
X13125000Y-9515000D03*
%TO.P,K1,3*%
%TO.N,N/C*%
X13125000Y-12055000D03*
%TO.P,K1,4*%
%TO.N,SW_COM*%
X13125000Y-14595000D03*
%TO.P,K1,5*%
%TO.N,N/C*%
X13125000Y-17135000D03*
%TO.P,K1,6*%
%TO.N,SW_NC*%
X13125000Y-19675000D03*
%TO.P,K1,7*%
%TO.N,N/C*%
X13125000Y-22215000D03*
%TO.P,K1,8*%
%TO.N,SW_NO*%
X13125000Y-24755000D03*
%TO.P,K1,9*%
%TO.N,SW2_NO*%
X20745000Y-24755000D03*
%TO.P,K1,10*%
%TO.N,N/C*%
X20745000Y-22215000D03*
%TO.P,K1,11*%
%TO.N,SW2_NC*%
X20745000Y-19675000D03*
%TO.P,K1,12*%
%TO.N,N/C*%
X20745000Y-17135000D03*
%TO.P,K1,13*%
%TO.N,SW2_COM*%
X20745000Y-14595000D03*
%TO.P,K1,14*%
%TO.N,N/C*%
X20745000Y-12055000D03*
%TO.P,K1,15*%
%TO.N,COIL_RESET_B*%
X20745000Y-9515000D03*
%TO.P,K1,16*%
%TO.N,COIL_SET_B*%
X20745000Y-6975000D03*
%TD*%
D10*
%TO.P,R1,1*%
%TO.N,SET_CTRL*%
X30125000Y-4887500D03*
%TO.P,R1,2*%
%TO.N,Q1_GATE*%
X30125000Y-3062500D03*
%TD*%
%TO.P,R3,1*%
%TO.N,Q1_GATE*%
X30125000Y-12887500D03*
%TO.P,R3,2*%
%TO.N,GND*%
X30125000Y-11062500D03*
%TD*%
D15*
%TO.P,Q1,1*%
%TO.N,Q1_GATE*%
X24175000Y-9912500D03*
%TO.P,Q1,2*%
%TO.N,GND*%
X26075000Y-9912500D03*
%TO.P,Q1,3*%
%TO.N,COIL_SET_B*%
X25125000Y-8037500D03*
%TD*%
%TO.P,Q2,1*%
%TO.N,Q2_GATE*%
X24175000Y-21912500D03*
%TO.P,Q2,2*%
%TO.N,GND*%
X26075000Y-21912500D03*
%TO.P,Q2,3*%
%TO.N,COIL_RESET_B*%
X25125000Y-20037500D03*
%TD*%
D16*
%TO.P,D2,1*%
%TO.N,COIL_RESET_B*%
X21475000Y-28475000D03*
%TO.P,D2,2*%
%TO.N,3V3*%
X24775000Y-28475000D03*
%TD*%
D17*
%TO.P,C2,1*%
%TO.N,3V3*%
X14175000Y-27975000D03*
%TO.P,C2,2*%
%TO.N,GND*%
X16075000Y-27975000D03*
%TD*%
D16*
%TO.P,D3,1*%
%TO.N,RAW_IN*%
X16435000Y-3975000D03*
%TO.P,D3,2*%
%TO.N,GND*%
X19735000Y-3975000D03*
%TD*%
D11*
%TO.P,J2,1*%
%TO.N,3V3*%
X5125000Y-29375000D03*
D12*
%TO.P,J2,2*%
%TO.N,GND*%
X7665000Y-29375000D03*
%TD*%
D10*
%TO.P,R2,1*%
%TO.N,RESET_CTRL*%
X30125000Y-18887500D03*
%TO.P,R2,2*%
%TO.N,Q2_GATE*%
X30125000Y-17062500D03*
%TD*%
D11*
%TO.P,J5,1*%
%TO.N,SW2_COM*%
X37125000Y-16975000D03*
D12*
%TO.P,J5,2*%
%TO.N,SW2_NC*%
X37125000Y-19515000D03*
%TO.P,J5,3*%
%TO.N,SW2_NO*%
X37125000Y-22055000D03*
%TD*%
D11*
%TO.P,J1,1*%
%TO.N,3V3*%
X7125000Y-6975000D03*
D12*
%TO.P,J1,2*%
%TO.N,GND*%
X7125000Y-9515000D03*
%TO.P,J1,3*%
%TO.N,SENSE_MID*%
X7125000Y-12055000D03*
%TO.P,J1,4*%
%TO.N,SET_CTRL*%
X7125000Y-14595000D03*
%TO.P,J1,5*%
%TO.N,RESET_CTRL*%
X7125000Y-17135000D03*
%TD*%
D11*
%TO.P,J6,1*%
%TO.N,SENSE_MID*%
X37125000Y-25975000D03*
D12*
%TO.P,J6,2*%
%TO.N,GND*%
X37125000Y-28515000D03*
%TD*%
D11*
%TO.P,J4,1*%
%TO.N,SW_COM*%
X37125000Y-7975000D03*
D12*
%TO.P,J4,2*%
%TO.N,SW_NC*%
X37125000Y-10515000D03*
%TO.P,J4,3*%
%TO.N,SW_NO*%
X37125000Y-13055000D03*
%TD*%
D16*
%TO.P,D1,1*%
%TO.N,COIL_SET_B*%
X21475000Y-3975000D03*
%TO.P,D1,2*%
%TO.N,3V3*%
X24775000Y-3975000D03*
%TD*%
D18*
%TO.P,C1,1*%
%TO.N,3V3*%
X3525000Y-23375000D03*
%TO.P,C1,2*%
%TO.N,GND*%
X9125000Y-23375000D03*
%TD*%
D19*
%TO.N,GND*%
X19800000Y-4000000D03*
X16000000Y-28000000D03*
X20000000Y-28000000D03*
X26000000Y-10000000D03*
X30200000Y-11000000D03*
X9200000Y-26800000D03*
X9600000Y-7400000D03*
X28000000Y-24000000D03*
X13200000Y-29400000D03*
X26000000Y-21200000D03*
X26000000Y-22000000D03*
X28400000Y-11000000D03*
%TO.N,SET_CTRL*%
X9800000Y-6000000D03*
%TO.N,RESET_CTRL*%
X31600000Y-2200000D03*
%TO.N,Q1_GATE*%
X30100000Y-12900000D03*
X38800000Y-30300000D03*
X24200000Y-9900000D03*
X18600000Y-14900000D03*
X12200000Y-18400000D03*
X32600000Y-14100000D03*
X29100000Y-3800000D03*
X23000000Y-11600000D03*
X34400000Y-12200000D03*
X10400000Y-18800000D03*
X10600000Y-20000000D03*
X37300000Y-31800000D03*
%TO.N,Q2_GATE*%
X26000000Y-25400000D03*
X24800000Y-24200000D03*
%TO.N,SW_COM*%
X17400000Y-5000000D03*
%TO.N,SW_NC*%
X21800000Y-26200000D03*
%TO.N,SW_NO*%
X26800000Y-29000000D03*
X16600000Y-26600000D03*
X28800000Y-27000000D03*
%TO.N,SW2_COM*%
X16600000Y-25200000D03*
X10400000Y-27000000D03*
X15200000Y-26600000D03*
X16000000Y-23400000D03*
X20200000Y-15800000D03*
%TO.N,SW2_NC*%
X34000000Y-27000000D03*
X16800000Y-7800000D03*
X11200000Y-30400000D03*
%TO.N,SW2_NO*%
X31400000Y-29000000D03*
X19800000Y-24200000D03*
%TO.N,RAW_IN*%
X16400000Y-4000000D03*
X13400000Y-1800000D03*
%TO.N,SENSE_MID*%
X9600000Y-20800000D03*
X8000000Y-12600000D03*
X9400000Y-31200000D03*
X9600000Y-11000000D03*
%TD*%
D20*
%TO.N,3V3*%
X14200000Y-28200000D02*
X14200000Y-28600000D01*
X5800000Y-8800000D02*
X5800000Y-9000000D01*
X15000000Y-29400000D02*
X15400000Y-29400000D01*
X5000000Y-29200000D02*
X5125000Y-29375000D01*
X27400000Y-22800000D02*
X27400000Y-6600000D01*
X7400000Y-7200000D02*
X7125000Y-6975000D01*
X5125000Y-29375000D02*
X5400000Y-29200000D01*
X5400000Y-29200000D02*
X6400000Y-28200000D01*
X5600000Y-9200000D02*
X5600000Y-21400000D01*
X6000000Y-8400000D02*
X6000000Y-8600000D01*
X3800000Y-23200000D02*
X3525000Y-23375000D01*
X13200000Y-7200000D02*
X13200000Y-9400000D01*
X6800000Y-28000000D02*
X7000000Y-28000000D01*
X6000000Y-8600000D02*
X5800000Y-8800000D01*
X9800000Y-9600000D02*
X7400000Y-7200000D01*
X13125000Y-6975000D02*
X13200000Y-7200000D01*
X5800000Y-9000000D02*
X5600000Y-9200000D01*
X14000000Y-27800000D02*
X14175000Y-27975000D01*
X6400000Y-28200000D02*
X6600000Y-28200000D01*
X7000000Y-28000000D02*
X7200000Y-27800000D01*
X24800000Y-28200000D02*
X24800000Y-25400000D01*
X13000000Y-9600000D02*
X9800000Y-9600000D01*
X24775000Y-28475000D02*
X24800000Y-28200000D01*
X27400000Y-6600000D02*
X25000000Y-4200000D01*
X14200000Y-28600000D02*
X15000000Y-29400000D01*
X24800000Y-25400000D02*
X27400000Y-22800000D01*
X13125000Y-9515000D02*
X13000000Y-9600000D01*
X3525000Y-23375000D02*
X3600000Y-23600000D01*
X25000000Y-4200000D02*
X24775000Y-3975000D01*
X14175000Y-27975000D02*
X14200000Y-28200000D01*
X15400000Y-29400000D02*
X15600000Y-29600000D01*
X7125000Y-6975000D02*
X7200000Y-7200000D01*
X20800000Y-29800000D02*
X23400000Y-29800000D01*
X7200000Y-27800000D02*
X14000000Y-27800000D01*
X20600000Y-29600000D02*
X20800000Y-29800000D01*
X3600000Y-23600000D02*
X3600000Y-27800000D01*
X15600000Y-29600000D02*
X20600000Y-29600000D01*
X6600000Y-28200000D02*
X6800000Y-28000000D01*
X24600000Y-28600000D02*
X24775000Y-28475000D01*
X13200000Y-9400000D02*
X13125000Y-9515000D01*
X23400000Y-29800000D02*
X24600000Y-28600000D01*
X3600000Y-27800000D02*
X5000000Y-29200000D01*
X5600000Y-21400000D02*
X3800000Y-23200000D01*
X7200000Y-7200000D02*
X6000000Y-8400000D01*
%TO.N,GND*%
X30125000Y-11062500D02*
X30000000Y-11000000D01*
X7400000Y-9800000D02*
X8400000Y-10800000D01*
X16000000Y-28000000D02*
X16075000Y-27975000D01*
X8800000Y-11600000D02*
X8800000Y-23000000D01*
X26000000Y-10000000D02*
X26075000Y-9912500D01*
X8400000Y-10800000D02*
X8400000Y-11000000D01*
X9000000Y-23200000D02*
X9125000Y-23375000D01*
X8600000Y-11400000D02*
X8800000Y-11600000D01*
X9200000Y-23600000D02*
X9200000Y-26800000D01*
X12000000Y-5000000D02*
X9600000Y-7400000D01*
X30200000Y-11000000D02*
X30125000Y-11062500D01*
X19735000Y-3975000D02*
X19600000Y-4000000D01*
X12200000Y-5000000D02*
X12000000Y-5000000D01*
X8400000Y-11000000D02*
X8600000Y-11200000D01*
X14400000Y-2600000D02*
X13800000Y-3200000D01*
X7665000Y-29375000D02*
X7800000Y-29400000D01*
X30000000Y-11000000D02*
X28400000Y-11000000D01*
X17400000Y-2800000D02*
X17200000Y-2800000D01*
X19600000Y-4000000D02*
X18600000Y-4000000D01*
X7800000Y-29400000D02*
X13200000Y-29400000D01*
X26000000Y-22000000D02*
X26075000Y-21912500D01*
X7125000Y-9515000D02*
X7400000Y-9800000D01*
X17200000Y-2800000D02*
X17000000Y-2600000D01*
X19800000Y-4000000D02*
X19735000Y-3975000D01*
X18600000Y-4000000D02*
X17400000Y-2800000D01*
X26075000Y-21912500D02*
X26000000Y-21800000D01*
X16200000Y-28000000D02*
X20000000Y-28000000D01*
X26075000Y-9912500D02*
X26000000Y-10000000D01*
X13800000Y-3200000D02*
X13595000Y-3325000D01*
X26000000Y-21800000D02*
X26000000Y-21200000D01*
X8600000Y-11200000D02*
X8600000Y-11400000D01*
X16075000Y-27975000D02*
X16200000Y-28000000D01*
X13595000Y-3325000D02*
X13600000Y-3600000D01*
X17000000Y-2600000D02*
X14400000Y-2600000D01*
X9125000Y-23375000D02*
X9200000Y-23600000D01*
X30125000Y-26062500D02*
X30000000Y-26000000D01*
X30000000Y-26000000D02*
X28000000Y-24000000D01*
X13600000Y-3600000D02*
X12200000Y-5000000D01*
X8800000Y-23000000D02*
X9000000Y-23200000D01*
%TO.N,SET_CTRL*%
X25800000Y-2800000D02*
X25600000Y-2800000D01*
X17600000Y-1800000D02*
X15000000Y-1800000D01*
X9200000Y-2600000D02*
X9200000Y-5400000D01*
X10800000Y-800000D02*
X9400000Y-2200000D01*
X30000000Y-4800000D02*
X27800000Y-4800000D01*
X9400000Y-2400000D02*
X9200000Y-2600000D01*
X15000000Y-1800000D02*
X14000000Y-800000D01*
X25400000Y-2600000D02*
X18600000Y-2600000D01*
X9400000Y-2200000D02*
X9400000Y-2400000D01*
X25600000Y-2800000D02*
X25400000Y-2600000D01*
X30125000Y-4887500D02*
X30000000Y-4800000D01*
X18600000Y-2600000D02*
X18000000Y-2000000D01*
X18000000Y-2000000D02*
X17800000Y-2000000D01*
X14000000Y-800000D02*
X10800000Y-800000D01*
X17800000Y-2000000D02*
X17600000Y-1800000D01*
X9200000Y-5400000D02*
X9800000Y-6000000D01*
X27800000Y-4800000D02*
X25800000Y-2800000D01*
%TO.N,RESET_CTRL*%
X31600000Y-18000000D02*
X31600000Y-17600000D01*
X31800000Y-2400000D02*
X31600000Y-2200000D01*
X30125000Y-18887500D02*
X30400000Y-18800000D01*
X31800000Y-17400000D02*
X31800000Y-2400000D01*
X30800000Y-18800000D02*
X31600000Y-18000000D01*
X31600000Y-17600000D02*
X31800000Y-17400000D01*
X30400000Y-18800000D02*
X30800000Y-18800000D01*
%TO.N,Q1_GATE*%
X38500000Y-26900000D02*
X38600000Y-26800000D01*
X35500000Y-17400000D02*
X35500000Y-17000000D01*
X38700000Y-26600000D02*
X38700000Y-26200000D01*
X38300000Y-29000000D02*
X38400000Y-28900000D01*
X38800000Y-26100000D02*
X38800000Y-21800000D01*
X38500000Y-16000000D02*
X38500000Y-16100000D01*
X30125000Y-3062500D02*
X30000000Y-3100000D01*
X24175000Y-9912500D02*
X24200000Y-10000000D01*
X36500000Y-20800000D02*
X36100000Y-20400000D01*
X38100000Y-21100000D02*
X38000000Y-21100000D01*
X38600000Y-26800000D02*
X38600000Y-26700000D01*
X38000000Y-21100000D02*
X37800000Y-20900000D01*
X35900000Y-20000000D02*
X35900000Y-18100000D01*
X12200000Y-18400000D02*
X10800000Y-18400000D01*
X12600000Y-18500000D02*
X15000000Y-18500000D01*
X35500000Y-17000000D02*
X32600000Y-14100000D01*
X38800000Y-21800000D02*
X38100000Y-21100000D01*
X12500000Y-18600000D02*
X12600000Y-18500000D01*
X34400000Y-12200000D02*
X36400000Y-14200000D01*
X36600000Y-14300000D02*
X36800000Y-14300000D01*
X35700000Y-17900000D02*
X35700000Y-17800000D01*
X37700000Y-20900000D02*
X37600000Y-20800000D01*
X30100000Y-12900000D02*
X30125000Y-12887500D01*
X38600000Y-16300000D02*
X38700000Y-16400000D01*
X38600000Y-26700000D02*
X38700000Y-26600000D01*
X35600000Y-17500000D02*
X35500000Y-17400000D01*
X24200000Y-10400000D02*
X23000000Y-11600000D01*
X38700000Y-16400000D02*
X38700000Y-16700000D01*
X36100000Y-20300000D02*
X36000000Y-20200000D01*
X24200000Y-10000000D02*
X24200000Y-10400000D01*
X12400000Y-18600000D02*
X12500000Y-18600000D01*
X29800000Y-3100000D02*
X29100000Y-3800000D01*
X35700000Y-17800000D02*
X35600000Y-17700000D01*
X38700000Y-26200000D02*
X38800000Y-26100000D01*
X38600000Y-16200000D02*
X38600000Y-16300000D01*
X10800000Y-18400000D02*
X10400000Y-18800000D01*
X35900000Y-18100000D02*
X35700000Y-17900000D01*
X36400000Y-14200000D02*
X36500000Y-14200000D01*
X37800000Y-20900000D02*
X37700000Y-20900000D01*
X38500000Y-27000000D02*
X38500000Y-26900000D01*
X30000000Y-3100000D02*
X29800000Y-3100000D01*
X15000000Y-18500000D02*
X18600000Y-14900000D01*
X37600000Y-20800000D02*
X36500000Y-20800000D01*
X24200000Y-9900000D02*
X24175000Y-9912500D01*
X38500000Y-16100000D02*
X38600000Y-16200000D01*
X35600000Y-17700000D02*
X35600000Y-17500000D01*
X37300000Y-31800000D02*
X37300000Y-30200000D01*
X38700000Y-16700000D02*
X38800000Y-16800000D01*
X36100000Y-20400000D02*
X36100000Y-20300000D01*
X36800000Y-14300000D02*
X38500000Y-16000000D01*
X38400000Y-28900000D02*
X38400000Y-27100000D01*
X38400000Y-27100000D02*
X38500000Y-27000000D01*
X38300000Y-29200000D02*
X38300000Y-29000000D01*
X36000000Y-20100000D02*
X35900000Y-20000000D01*
X37300000Y-30200000D02*
X38300000Y-29200000D01*
X38800000Y-16800000D02*
X38800000Y-30300000D01*
X36500000Y-14200000D02*
X36600000Y-14300000D01*
X11000000Y-20000000D02*
X12400000Y-18600000D01*
X10600000Y-20000000D02*
X11000000Y-20000000D01*
X36000000Y-20200000D02*
X36000000Y-20100000D01*
%TO.N,Q2_GATE*%
X30400000Y-27600000D02*
X30125000Y-27887500D01*
X31600000Y-26400000D02*
X31600000Y-22200000D01*
X29000000Y-19400000D02*
X28800000Y-19200000D01*
X29600000Y-17600000D02*
X30000000Y-17200000D01*
X24175000Y-21912500D02*
X24200000Y-22200000D01*
X31400000Y-26600000D02*
X31600000Y-26400000D01*
X26000000Y-25400000D02*
X26000000Y-29600000D01*
X31600000Y-26600000D02*
X31400000Y-26600000D01*
X30800000Y-27400000D02*
X30600000Y-27400000D01*
X31600000Y-22200000D02*
X29000000Y-19600000D01*
X30000000Y-17000000D02*
X28800000Y-18200000D01*
X30000000Y-17200000D02*
X30125000Y-17062500D01*
X24200000Y-22200000D02*
X24200000Y-23600000D01*
X26200000Y-29800000D02*
X28400000Y-29800000D01*
X28800000Y-18200000D02*
X28800000Y-22600000D01*
X31400000Y-26800000D02*
X31400000Y-26600000D01*
X31400000Y-26600000D02*
X31400000Y-26800000D01*
X28800000Y-22600000D02*
X31600000Y-25400000D01*
X30600000Y-27400000D02*
X30400000Y-27600000D01*
X28400000Y-29800000D02*
X31400000Y-26800000D01*
X31600000Y-25400000D02*
X31600000Y-26600000D01*
X24200000Y-23600000D02*
X24800000Y-24200000D01*
X30125000Y-17062500D02*
X30000000Y-17000000D01*
X31200000Y-27000000D02*
X30800000Y-27400000D01*
X28800000Y-19200000D02*
X28800000Y-18200000D01*
X29000000Y-19600000D02*
X29000000Y-19400000D01*
X29400000Y-17600000D02*
X29600000Y-17600000D01*
X26000000Y-29600000D02*
X26200000Y-29800000D01*
X31200000Y-26800000D02*
X31200000Y-27000000D01*
X28800000Y-18200000D02*
X29400000Y-17600000D01*
X31400000Y-26800000D02*
X31200000Y-26800000D01*
%TO.N,COIL_SET_B*%
X20800000Y-6800000D02*
X20800000Y-5200000D01*
X20745000Y-6975000D02*
X20800000Y-6800000D01*
X21400000Y-4200000D02*
X25000000Y-7800000D01*
X21000000Y-5000000D02*
X21000000Y-4800000D01*
X21000000Y-4800000D02*
X21200000Y-4600000D01*
X21475000Y-3975000D02*
X21400000Y-4200000D01*
X21200000Y-4200000D02*
X21475000Y-3975000D01*
X25000000Y-7800000D02*
X25125000Y-8037500D01*
X20800000Y-5200000D02*
X21000000Y-5000000D01*
X21200000Y-4600000D02*
X21200000Y-4200000D01*
%TO.N,COIL_RESET_B*%
X21600000Y-28200000D02*
X21475000Y-28475000D01*
X22200000Y-17000000D02*
X25000000Y-19800000D01*
X20800000Y-9800000D02*
X22200000Y-11200000D01*
X25000000Y-20000000D02*
X24000000Y-20000000D01*
X22800000Y-27000000D02*
X21600000Y-28200000D01*
X25000000Y-19800000D02*
X25125000Y-20037500D01*
X20745000Y-9515000D02*
X20800000Y-9800000D01*
X25125000Y-20037500D02*
X25000000Y-20000000D01*
X22800000Y-21200000D02*
X22800000Y-27000000D01*
X22200000Y-11200000D02*
X22200000Y-17000000D01*
X24000000Y-20000000D02*
X22800000Y-21200000D01*
%TO.N,SW_COM*%
X14600000Y-12800000D02*
X14600000Y-8200000D01*
X13200000Y-14200000D02*
X14600000Y-12800000D01*
X14800000Y-8000000D02*
X14800000Y-7800000D01*
X13200000Y-14400000D02*
X13200000Y-14200000D01*
X17400000Y-5200000D02*
X17400000Y-5000000D01*
X13125000Y-14595000D02*
X13200000Y-14400000D01*
X14800000Y-7800000D02*
X17400000Y-5200000D01*
X14600000Y-8200000D02*
X14800000Y-8000000D01*
%TO.N,SW_NC*%
X13400000Y-19600000D02*
X20000000Y-26200000D01*
X13125000Y-19675000D02*
X13400000Y-19600000D01*
X20000000Y-26200000D02*
X21800000Y-26200000D01*
%TO.N,SW_NO*%
X14800000Y-24800000D02*
X16600000Y-26600000D01*
X13400000Y-24800000D02*
X14800000Y-24800000D01*
X26800000Y-29000000D02*
X28800000Y-27000000D01*
X13125000Y-24755000D02*
X13400000Y-24800000D01*
%TO.N,SW2_COM*%
X10800000Y-26600000D02*
X10400000Y-27000000D01*
X20800000Y-14800000D02*
X20800000Y-15200000D01*
X16000000Y-23400000D02*
X16000000Y-24600000D01*
X20800000Y-15200000D02*
X20200000Y-15800000D01*
X20745000Y-14595000D02*
X20800000Y-14800000D01*
X16000000Y-24600000D02*
X16600000Y-25200000D01*
X15200000Y-26600000D02*
X10800000Y-26600000D01*
%TO.N,SW2_NC*%
X32600000Y-29800000D02*
X32600000Y-29400000D01*
X19600000Y-30600000D02*
X19800000Y-30800000D01*
X32600000Y-29400000D02*
X32800000Y-29200000D01*
X32800000Y-29200000D02*
X32800000Y-28400000D01*
X34000000Y-27200000D02*
X34000000Y-27000000D01*
X32800000Y-28400000D02*
X34000000Y-27200000D01*
X31600000Y-30800000D02*
X32600000Y-29800000D01*
X14400000Y-30400000D02*
X14600000Y-30600000D01*
X20745000Y-19675000D02*
X20800000Y-19400000D01*
X20800000Y-19400000D02*
X19400000Y-18000000D01*
X19800000Y-30800000D02*
X31600000Y-30800000D01*
X14600000Y-30600000D02*
X19600000Y-30600000D01*
X19400000Y-18000000D02*
X19400000Y-10400000D01*
X11200000Y-30400000D02*
X14400000Y-30400000D01*
X19400000Y-10400000D02*
X16800000Y-7800000D01*
%TO.N,SW2_NO*%
X31600000Y-28800000D02*
X31600000Y-28400000D01*
X31600000Y-28400000D02*
X31800000Y-28200000D01*
X37000000Y-22200000D02*
X37125000Y-22055000D01*
X31400000Y-29000000D02*
X31600000Y-28800000D01*
X31800000Y-28200000D02*
X31800000Y-27400000D01*
X20600000Y-24800000D02*
X20000000Y-24200000D01*
X20745000Y-24755000D02*
X20600000Y-24800000D01*
X31800000Y-27400000D02*
X37000000Y-22200000D01*
X20000000Y-24200000D02*
X19800000Y-24200000D01*
%TO.N,RAW_IN*%
X13000000Y-2000000D02*
X13200000Y-1800000D01*
X11055000Y-3325000D02*
X11200000Y-3400000D01*
X12400000Y-2200000D02*
X12600000Y-2200000D01*
X11200000Y-3400000D02*
X12400000Y-2200000D01*
X13200000Y-1800000D02*
X13400000Y-1800000D01*
X12800000Y-2000000D02*
X13000000Y-2000000D01*
X16400000Y-4000000D02*
X16434999Y-3975000D01*
X12600000Y-2200000D02*
X12800000Y-2000000D01*
%TO.N,SENSE_MID*%
X7125000Y-12055000D02*
X7400000Y-12000000D01*
X33600000Y-29800000D02*
X33600000Y-29600000D01*
X9600000Y-11000000D02*
X9600000Y-20800000D01*
X7400000Y-12000000D02*
X8000000Y-12600000D01*
X32200000Y-31600000D02*
X33400000Y-30400000D01*
X19200000Y-31600000D02*
X32200000Y-31600000D01*
X10400000Y-31200000D02*
X10600000Y-31400000D01*
X33600000Y-29600000D02*
X37000000Y-26200000D01*
X10600000Y-31400000D02*
X19000000Y-31400000D01*
X33400000Y-30400000D02*
X33400000Y-30000000D01*
X9400000Y-31200000D02*
X10400000Y-31200000D01*
X37000000Y-26200000D02*
X37125000Y-25975000D01*
X19000000Y-31400000D02*
X19200000Y-31600000D01*
X33400000Y-30000000D02*
X33600000Y-29800000D01*
%TD*%
M02*
