%TF.GenerationSoftware,KiCad,Pcbnew,7.0.11+dfsg-1build4*%
%TF.CreationDate,2026-09-29T18:52:29+02:00*%
%TF.ProjectId,RetroPower_Compact,52657472-6f50-46f7-9765-725f436f6d70,rev?*%
%TF.SameCoordinates,Original*%
%TF.FileFunction,Other,Comment*%
%FSLAX46Y46*%
G04 Gerber Fmt 4.6, Leading zero omitted, Abs format (unit mm)*
G04 Created by KiCad (PCBNEW 7.0.11+dfsg-1build4) date 2026-09-29 18:52:29*
%MOMM*%
%LPD*%
G01*
G04 APERTURE LIST*
%ADD10C,0.150000*%
%ADD11C,0.120000*%
G04 APERTURE END LIST*
D10*
X2625000Y-6975000D02*
X25625000Y-6975000D01*
X25625000Y-26975000D02*
X2625000Y-26975000D01*
X2625000Y-26975000D02*
X2625000Y-6975000D01*
X25625000Y-6975000D02*
X25625000Y-26975000D01*
D11*
X3146804Y-7631378D02*
X3813470Y-7631378D01*
X3813470Y-7631378D02*
X3146804Y-8631378D01*
X3146804Y-8631378D02*
X3813470Y-8631378D01*
X4337280Y-8631378D02*
X4242042Y-8583759D01*
X4242042Y-8583759D02*
X4194423Y-8536139D01*
X4194423Y-8536139D02*
X4146804Y-8440901D01*
X4146804Y-8440901D02*
X4146804Y-8155187D01*
X4146804Y-8155187D02*
X4194423Y-8059949D01*
X4194423Y-8059949D02*
X4242042Y-8012330D01*
X4242042Y-8012330D02*
X4337280Y-7964711D01*
X4337280Y-7964711D02*
X4480137Y-7964711D01*
X4480137Y-7964711D02*
X4575375Y-8012330D01*
X4575375Y-8012330D02*
X4622994Y-8059949D01*
X4622994Y-8059949D02*
X4670613Y-8155187D01*
X4670613Y-8155187D02*
X4670613Y-8440901D01*
X4670613Y-8440901D02*
X4622994Y-8536139D01*
X4622994Y-8536139D02*
X4575375Y-8583759D01*
X4575375Y-8583759D02*
X4480137Y-8631378D01*
X4480137Y-8631378D02*
X4337280Y-8631378D01*
X5099185Y-7964711D02*
X5099185Y-8631378D01*
X5099185Y-8059949D02*
X5146804Y-8012330D01*
X5146804Y-8012330D02*
X5242042Y-7964711D01*
X5242042Y-7964711D02*
X5384899Y-7964711D01*
X5384899Y-7964711D02*
X5480137Y-8012330D01*
X5480137Y-8012330D02*
X5527756Y-8107568D01*
X5527756Y-8107568D02*
X5527756Y-8631378D01*
X6384899Y-8583759D02*
X6289661Y-8631378D01*
X6289661Y-8631378D02*
X6099185Y-8631378D01*
X6099185Y-8631378D02*
X6003947Y-8583759D01*
X6003947Y-8583759D02*
X5956328Y-8488520D01*
X5956328Y-8488520D02*
X5956328Y-8107568D01*
X5956328Y-8107568D02*
X6003947Y-8012330D01*
X6003947Y-8012330D02*
X6099185Y-7964711D01*
X6099185Y-7964711D02*
X6289661Y-7964711D01*
X6289661Y-7964711D02*
X6384899Y-8012330D01*
X6384899Y-8012330D02*
X6432518Y-8107568D01*
X6432518Y-8107568D02*
X6432518Y-8202806D01*
X6432518Y-8202806D02*
X5956328Y-8298044D01*
X7622995Y-8107568D02*
X7956328Y-8107568D01*
X8099185Y-8631378D02*
X7622995Y-8631378D01*
X7622995Y-8631378D02*
X7622995Y-7631378D01*
X7622995Y-7631378D02*
X8099185Y-7631378D01*
X8480138Y-8583759D02*
X8622995Y-8631378D01*
X8622995Y-8631378D02*
X8861090Y-8631378D01*
X8861090Y-8631378D02*
X8956328Y-8583759D01*
X8956328Y-8583759D02*
X9003947Y-8536139D01*
X9003947Y-8536139D02*
X9051566Y-8440901D01*
X9051566Y-8440901D02*
X9051566Y-8345663D01*
X9051566Y-8345663D02*
X9003947Y-8250425D01*
X9003947Y-8250425D02*
X8956328Y-8202806D01*
X8956328Y-8202806D02*
X8861090Y-8155187D01*
X8861090Y-8155187D02*
X8670614Y-8107568D01*
X8670614Y-8107568D02*
X8575376Y-8059949D01*
X8575376Y-8059949D02*
X8527757Y-8012330D01*
X8527757Y-8012330D02*
X8480138Y-7917092D01*
X8480138Y-7917092D02*
X8480138Y-7821854D01*
X8480138Y-7821854D02*
X8527757Y-7726616D01*
X8527757Y-7726616D02*
X8575376Y-7678997D01*
X8575376Y-7678997D02*
X8670614Y-7631378D01*
X8670614Y-7631378D02*
X8908709Y-7631378D01*
X8908709Y-7631378D02*
X9051566Y-7678997D01*
X9480138Y-8631378D02*
X9480138Y-7631378D01*
X9480138Y-7631378D02*
X9861090Y-7631378D01*
X9861090Y-7631378D02*
X9956328Y-7678997D01*
X9956328Y-7678997D02*
X10003947Y-7726616D01*
X10003947Y-7726616D02*
X10051566Y-7821854D01*
X10051566Y-7821854D02*
X10051566Y-7964711D01*
X10051566Y-7964711D02*
X10003947Y-8059949D01*
X10003947Y-8059949D02*
X9956328Y-8107568D01*
X9956328Y-8107568D02*
X9861090Y-8155187D01*
X9861090Y-8155187D02*
X9480138Y-8155187D01*
X10384900Y-7631378D02*
X11003947Y-7631378D01*
X11003947Y-7631378D02*
X10670614Y-8012330D01*
X10670614Y-8012330D02*
X10813471Y-8012330D01*
X10813471Y-8012330D02*
X10908709Y-8059949D01*
X10908709Y-8059949D02*
X10956328Y-8107568D01*
X10956328Y-8107568D02*
X11003947Y-8202806D01*
X11003947Y-8202806D02*
X11003947Y-8440901D01*
X11003947Y-8440901D02*
X10956328Y-8536139D01*
X10956328Y-8536139D02*
X10908709Y-8583759D01*
X10908709Y-8583759D02*
X10813471Y-8631378D01*
X10813471Y-8631378D02*
X10527757Y-8631378D01*
X10527757Y-8631378D02*
X10432519Y-8583759D01*
X10432519Y-8583759D02*
X10384900Y-8536139D01*
X11384900Y-7726616D02*
X11432519Y-7678997D01*
X11432519Y-7678997D02*
X11527757Y-7631378D01*
X11527757Y-7631378D02*
X11765852Y-7631378D01*
X11765852Y-7631378D02*
X11861090Y-7678997D01*
X11861090Y-7678997D02*
X11908709Y-7726616D01*
X11908709Y-7726616D02*
X11956328Y-7821854D01*
X11956328Y-7821854D02*
X11956328Y-7917092D01*
X11956328Y-7917092D02*
X11908709Y-8059949D01*
X11908709Y-8059949D02*
X11337281Y-8631378D01*
X11337281Y-8631378D02*
X11956328Y-8631378D01*
X13432519Y-9012330D02*
X13384900Y-8964711D01*
X13384900Y-8964711D02*
X13289662Y-8821854D01*
X13289662Y-8821854D02*
X13242043Y-8726616D01*
X13242043Y-8726616D02*
X13194424Y-8583759D01*
X13194424Y-8583759D02*
X13146805Y-8345663D01*
X13146805Y-8345663D02*
X13146805Y-8155187D01*
X13146805Y-8155187D02*
X13194424Y-7917092D01*
X13194424Y-7917092D02*
X13242043Y-7774235D01*
X13242043Y-7774235D02*
X13289662Y-7678997D01*
X13289662Y-7678997D02*
X13384900Y-7536139D01*
X13384900Y-7536139D02*
X13432519Y-7488520D01*
X14242043Y-8583759D02*
X14146805Y-8631378D01*
X14146805Y-8631378D02*
X13956329Y-8631378D01*
X13956329Y-8631378D02*
X13861091Y-8583759D01*
X13861091Y-8583759D02*
X13813472Y-8536139D01*
X13813472Y-8536139D02*
X13765853Y-8440901D01*
X13765853Y-8440901D02*
X13765853Y-8155187D01*
X13765853Y-8155187D02*
X13813472Y-8059949D01*
X13813472Y-8059949D02*
X13861091Y-8012330D01*
X13861091Y-8012330D02*
X13956329Y-7964711D01*
X13956329Y-7964711D02*
X14146805Y-7964711D01*
X14146805Y-7964711D02*
X14242043Y-8012330D01*
X14813472Y-8631378D02*
X14718234Y-8583759D01*
X14718234Y-8583759D02*
X14670615Y-8536139D01*
X14670615Y-8536139D02*
X14622996Y-8440901D01*
X14622996Y-8440901D02*
X14622996Y-8155187D01*
X14622996Y-8155187D02*
X14670615Y-8059949D01*
X14670615Y-8059949D02*
X14718234Y-8012330D01*
X14718234Y-8012330D02*
X14813472Y-7964711D01*
X14813472Y-7964711D02*
X14956329Y-7964711D01*
X14956329Y-7964711D02*
X15051567Y-8012330D01*
X15051567Y-8012330D02*
X15099186Y-8059949D01*
X15099186Y-8059949D02*
X15146805Y-8155187D01*
X15146805Y-8155187D02*
X15146805Y-8440901D01*
X15146805Y-8440901D02*
X15099186Y-8536139D01*
X15099186Y-8536139D02*
X15051567Y-8583759D01*
X15051567Y-8583759D02*
X14956329Y-8631378D01*
X14956329Y-8631378D02*
X14813472Y-8631378D01*
X15718234Y-8631378D02*
X15622996Y-8583759D01*
X15622996Y-8583759D02*
X15575377Y-8488520D01*
X15575377Y-8488520D02*
X15575377Y-7631378D01*
X16242044Y-8631378D02*
X16146806Y-8583759D01*
X16146806Y-8583759D02*
X16099187Y-8488520D01*
X16099187Y-8488520D02*
X16099187Y-7631378D01*
X17051568Y-8631378D02*
X17051568Y-8107568D01*
X17051568Y-8107568D02*
X17003949Y-8012330D01*
X17003949Y-8012330D02*
X16908711Y-7964711D01*
X16908711Y-7964711D02*
X16718235Y-7964711D01*
X16718235Y-7964711D02*
X16622997Y-8012330D01*
X17051568Y-8583759D02*
X16956330Y-8631378D01*
X16956330Y-8631378D02*
X16718235Y-8631378D01*
X16718235Y-8631378D02*
X16622997Y-8583759D01*
X16622997Y-8583759D02*
X16575378Y-8488520D01*
X16575378Y-8488520D02*
X16575378Y-8393282D01*
X16575378Y-8393282D02*
X16622997Y-8298044D01*
X16622997Y-8298044D02*
X16718235Y-8250425D01*
X16718235Y-8250425D02*
X16956330Y-8250425D01*
X16956330Y-8250425D02*
X17051568Y-8202806D01*
X17956330Y-7964711D02*
X17956330Y-8774235D01*
X17956330Y-8774235D02*
X17908711Y-8869473D01*
X17908711Y-8869473D02*
X17861092Y-8917092D01*
X17861092Y-8917092D02*
X17765854Y-8964711D01*
X17765854Y-8964711D02*
X17622997Y-8964711D01*
X17622997Y-8964711D02*
X17527759Y-8917092D01*
X17956330Y-8583759D02*
X17861092Y-8631378D01*
X17861092Y-8631378D02*
X17670616Y-8631378D01*
X17670616Y-8631378D02*
X17575378Y-8583759D01*
X17575378Y-8583759D02*
X17527759Y-8536139D01*
X17527759Y-8536139D02*
X17480140Y-8440901D01*
X17480140Y-8440901D02*
X17480140Y-8155187D01*
X17480140Y-8155187D02*
X17527759Y-8059949D01*
X17527759Y-8059949D02*
X17575378Y-8012330D01*
X17575378Y-8012330D02*
X17670616Y-7964711D01*
X17670616Y-7964711D02*
X17861092Y-7964711D01*
X17861092Y-7964711D02*
X17956330Y-8012330D01*
X18813473Y-8583759D02*
X18718235Y-8631378D01*
X18718235Y-8631378D02*
X18527759Y-8631378D01*
X18527759Y-8631378D02*
X18432521Y-8583759D01*
X18432521Y-8583759D02*
X18384902Y-8488520D01*
X18384902Y-8488520D02*
X18384902Y-8107568D01*
X18384902Y-8107568D02*
X18432521Y-8012330D01*
X18432521Y-8012330D02*
X18527759Y-7964711D01*
X18527759Y-7964711D02*
X18718235Y-7964711D01*
X18718235Y-7964711D02*
X18813473Y-8012330D01*
X18813473Y-8012330D02*
X18861092Y-8107568D01*
X18861092Y-8107568D02*
X18861092Y-8202806D01*
X18861092Y-8202806D02*
X18384902Y-8298044D01*
X19194426Y-9012330D02*
X19242045Y-8964711D01*
X19242045Y-8964711D02*
X19337283Y-8821854D01*
X19337283Y-8821854D02*
X19384902Y-8726616D01*
X19384902Y-8726616D02*
X19432521Y-8583759D01*
X19432521Y-8583759D02*
X19480140Y-8345663D01*
X19480140Y-8345663D02*
X19480140Y-8155187D01*
X19480140Y-8155187D02*
X19432521Y-7917092D01*
X19432521Y-7917092D02*
X19384902Y-7774235D01*
X19384902Y-7774235D02*
X19337283Y-7678997D01*
X19337283Y-7678997D02*
X19242045Y-7536139D01*
X19242045Y-7536139D02*
X19194426Y-7488520D01*
M02*
