M48
; DRILL file {KiCad 7.0.11+dfsg-1build4} date Tue Sep 29 18:52:36 2026
; FORMAT={-:-/ absolute / metric / decimal}
; #@! TF.CreationDate,2026-09-29T18:52:36+02:00
; #@! TF.GenerationSoftware,Kicad,Pcbnew,7.0.11+dfsg-1build4
; #@! TF.FileFunction,MixedPlating,1,2
FMAT,2
METRIC
; #@! TA.AperFunction,Plated,PTH,ViaDrill
T1C0.400
; #@! TA.AperFunction,Plated,PTH,ComponentDrill
T2C0.800
; #@! TA.AperFunction,Plated,PTH,ComponentDrill
T3C1.000
%
G90
G05
T1
X8.0Y-12.6
X9.2Y-26.8
X9.4Y-31.2
X9.6Y-7.4
X9.6Y-11.0
X9.6Y-20.8
X9.8Y-6.0
X10.4Y-18.8
X10.4Y-27.0
X10.6Y-20.0
X11.2Y-30.4
X12.2Y-18.4
X13.2Y-29.4
X13.4Y-1.8
X15.2Y-26.6
X16.0Y-23.4
X16.0Y-28.0
X16.4Y-4.0
X16.6Y-25.2
X16.6Y-26.6
X16.8Y-7.8
X17.4Y-5.0
X18.6Y-14.9
X19.8Y-4.0
X19.8Y-24.2
X20.0Y-28.0
X20.2Y-15.8
X21.8Y-26.2
X23.0Y-11.6
X24.2Y-9.9
X24.8Y-24.2
X26.0Y-10.0
X26.0Y-21.2
X26.0Y-22.0
X26.0Y-25.4
X26.8Y-29.0
X28.0Y-24.0
X28.4Y-11.0
X28.8Y-27.0
X29.1Y-3.8
X30.1Y-12.9
X30.2Y-11.0
X31.4Y-29.0
X31.6Y-2.2
X32.6Y-14.1
X34.0Y-27.0
X34.4Y-12.2
X37.3Y-31.8
X38.8Y-30.3
T2
X13.125Y-6.975
X13.125Y-9.515
X13.125Y-12.055
X13.125Y-14.595
X13.125Y-17.135
X13.125Y-19.675
X13.125Y-22.215
X13.125Y-24.755
X20.745Y-6.975
X20.745Y-9.515
X20.745Y-12.055
X20.745Y-14.595
X20.745Y-17.135
X20.745Y-19.675
X20.745Y-22.215
X20.745Y-24.755
T3
X5.125Y-29.375
X7.125Y-6.975
X7.125Y-9.515
X7.125Y-12.055
X7.125Y-14.595
X7.125Y-17.135
X7.665Y-29.375
X11.055Y-3.325
X13.595Y-3.325
X37.125Y-7.975
X37.125Y-10.515
X37.125Y-13.055
X37.125Y-16.975
X37.125Y-19.515
X37.125Y-22.055
X37.125Y-25.975
X37.125Y-28.515
M30
