%TF.GenerationSoftware,KiCad,Pcbnew,7.0.11+dfsg-1build4*%
%TF.CreationDate,2026-09-29T21:21:04+02:00*%
%TF.ProjectId,RetroPower_Integrated,52657472-6f50-46f7-9765-725f496e7465,rev?*%
%TF.SameCoordinates,Original*%
%TF.FileFunction,Soldermask,Bot*%
%TF.FilePolarity,Negative*%
%FSLAX46Y46*%
G04 Gerber Fmt 4.6, Leading zero omitted, Abs format (unit mm)*
G04 Created by KiCad (PCBNEW 7.0.11+dfsg-1build4) date 2026-09-29 21:21:04*
%MOMM*%
%LPD*%
G01*
G04 APERTURE LIST*
%ADD10R,1.700000X1.700000*%
%ADD11O,1.700000X1.700000*%
%ADD12R,1.600000X1.600000*%
%ADD13O,1.600000X1.600000*%
%ADD14C,1.700000*%
G04 APERTURE END LIST*
D10*
%TO.C,J6*%
X50010000Y-25975000D03*
D11*
X50010000Y-28515000D03*
%TD*%
D10*
%TO.C,J5*%
X50010000Y-16975000D03*
D11*
X50010000Y-19515000D03*
X50010000Y-22055000D03*
%TD*%
D10*
%TO.C,J3*%
X29940000Y-3325000D03*
D11*
X32480000Y-3325000D03*
%TD*%
D12*
%TO.C,K1*%
X26010000Y-6975000D03*
D13*
X26010000Y-9515000D03*
X26010000Y-12055000D03*
X26010000Y-14595000D03*
X26010000Y-17135000D03*
X26010000Y-19675000D03*
X26010000Y-22215000D03*
X26010000Y-24755000D03*
X33630000Y-24755000D03*
X33630000Y-22215000D03*
X33630000Y-19675000D03*
X33630000Y-17135000D03*
X33630000Y-14595000D03*
X33630000Y-12055000D03*
X33630000Y-9515000D03*
X33630000Y-6975000D03*
%TD*%
D10*
%TO.C,J4*%
X50010000Y-7975000D03*
D11*
X50010000Y-10515000D03*
X50010000Y-13055000D03*
%TD*%
D10*
%TO.C,J2*%
X18010000Y-29375000D03*
D11*
X20550000Y-29375000D03*
%TD*%
D10*
%TO.C,U1*%
X22445000Y-17465000D03*
D14*
X19905000Y-17465000D03*
X17365000Y-17465000D03*
X14825000Y-17465000D03*
X12285000Y-17465000D03*
X9745000Y-17465000D03*
X7205000Y-17465000D03*
X4665000Y-17465000D03*
X2125000Y-17465000D03*
X2125000Y-2225000D03*
X4665000Y-2225000D03*
X7205000Y-2225000D03*
X9745000Y-2225000D03*
X12285000Y-2225000D03*
X14825000Y-2225000D03*
X17365000Y-2225000D03*
X19905000Y-2225000D03*
X22445000Y-2225000D03*
%TD*%
M02*
