%TF.GenerationSoftware,KiCad,Pcbnew,7.0.11+dfsg-1build4*%
%TF.CreationDate,2026-09-29T21:21:04+02:00*%
%TF.ProjectId,RetroPower_Integrated,52657472-6f50-46f7-9765-725f496e7465,rev?*%
%TF.SameCoordinates,Original*%
%TF.FileFunction,Soldermask,Top*%
%TF.FilePolarity,Negative*%
%FSLAX46Y46*%
G04 Gerber Fmt 4.6, Leading zero omitted, Abs format (unit mm)*
G04 Created by KiCad (PCBNEW 7.0.11+dfsg-1build4) date 2026-09-29 21:21:04*
%MOMM*%
%LPD*%
G01*
G04 APERTURE LIST*
G04 Aperture macros list*
%AMRoundRect*
0 Rectangle with rounded corners*
0 $1 Rounding radius*
0 $2 $3 $4 $5 $6 $7 $8 $9 X,Y pos of 4 corners*
0 Add a 4 corners polygon primitive as box body*
4,1,4,$2,$3,$4,$5,$6,$7,$8,$9,$2,$3,0*
0 Add four circle primitives for the rounded corners*
1,1,$1+$1,$2,$3*
1,1,$1+$1,$4,$5*
1,1,$1+$1,$6,$7*
1,1,$1+$1,$8,$9*
0 Add four rect primitives between the rounded corners*
20,1,$1+$1,$2,$3,$4,$5,0*
20,1,$1+$1,$4,$5,$6,$7,0*
20,1,$1+$1,$6,$7,$8,$9,0*
20,1,$1+$1,$8,$9,$2,$3,0*%
G04 Aperture macros list end*
%ADD10RoundRect,0.150000X0.150000X-0.587500X0.150000X0.587500X-0.150000X0.587500X-0.150000X-0.587500X0*%
%ADD11RoundRect,0.225000X-0.225000X-0.375000X0.225000X-0.375000X0.225000X0.375000X-0.225000X0.375000X0*%
%ADD12R,1.700000X1.700000*%
%ADD13O,1.700000X1.700000*%
%ADD14RoundRect,0.250000X0.450000X-0.262500X0.450000X0.262500X-0.450000X0.262500X-0.450000X-0.262500X0*%
%ADD15RoundRect,0.250000X-1.500000X-0.550000X1.500000X-0.550000X1.500000X0.550000X-1.500000X0.550000X0*%
%ADD16RoundRect,0.250000X-0.250000X-0.475000X0.250000X-0.475000X0.250000X0.475000X-0.250000X0.475000X0*%
%ADD17R,1.600000X1.600000*%
%ADD18O,1.600000X1.600000*%
%ADD19C,1.700000*%
G04 APERTURE END LIST*
D10*
%TO.C,Q2*%
X37060000Y-21912500D03*
X38960000Y-21912500D03*
X38010000Y-20037500D03*
%TD*%
D11*
%TO.C,D2*%
X34360000Y-28475000D03*
X37660000Y-28475000D03*
%TD*%
D12*
%TO.C,J6*%
X50010000Y-25975000D03*
D13*
X50010000Y-28515000D03*
%TD*%
D10*
%TO.C,Q1*%
X37060000Y-9912500D03*
X38960000Y-9912500D03*
X38010000Y-8037500D03*
%TD*%
D14*
%TO.C,R1*%
X49010000Y-4887500D03*
X49010000Y-3062500D03*
%TD*%
%TO.C,R2*%
X43010000Y-18887500D03*
X43010000Y-17062500D03*
%TD*%
D12*
%TO.C,J5*%
X50010000Y-16975000D03*
D13*
X50010000Y-19515000D03*
X50010000Y-22055000D03*
%TD*%
D15*
%TO.C,C1*%
X16410000Y-23375000D03*
X22010000Y-23375000D03*
%TD*%
D16*
%TO.C,C2*%
X27060000Y-27975000D03*
X28960000Y-27975000D03*
%TD*%
D14*
%TO.C,R3*%
X43010000Y-12887500D03*
X43010000Y-11062500D03*
%TD*%
D12*
%TO.C,J3*%
X29940000Y-3325000D03*
D13*
X32480000Y-3325000D03*
%TD*%
D17*
%TO.C,K1*%
X26010000Y-6975000D03*
D18*
X26010000Y-9515000D03*
X26010000Y-12055000D03*
X26010000Y-14595000D03*
X26010000Y-17135000D03*
X26010000Y-19675000D03*
X26010000Y-22215000D03*
X26010000Y-24755000D03*
X33630000Y-24755000D03*
X33630000Y-22215000D03*
X33630000Y-19675000D03*
X33630000Y-17135000D03*
X33630000Y-14595000D03*
X33630000Y-12055000D03*
X33630000Y-9515000D03*
X33630000Y-6975000D03*
%TD*%
D14*
%TO.C,R4*%
X43010000Y-27887500D03*
X43010000Y-26062500D03*
%TD*%
D12*
%TO.C,J4*%
X50010000Y-7975000D03*
D13*
X50010000Y-10515000D03*
X50010000Y-13055000D03*
%TD*%
D11*
%TO.C,D1*%
X40360000Y-3975000D03*
X43660000Y-3975000D03*
%TD*%
D12*
%TO.C,J2*%
X18010000Y-29375000D03*
D13*
X20550000Y-29375000D03*
%TD*%
D11*
%TO.C,D3*%
X35320000Y-3975000D03*
X38620000Y-3975000D03*
%TD*%
D12*
%TO.C,U1*%
X22445000Y-17465000D03*
D19*
X19905000Y-17465000D03*
X17365000Y-17465000D03*
X14825000Y-17465000D03*
X12285000Y-17465000D03*
X9745000Y-17465000D03*
X7205000Y-17465000D03*
X4665000Y-17465000D03*
X2125000Y-17465000D03*
X2125000Y-2225000D03*
X4665000Y-2225000D03*
X7205000Y-2225000D03*
X9745000Y-2225000D03*
X12285000Y-2225000D03*
X14825000Y-2225000D03*
X17365000Y-2225000D03*
X19905000Y-2225000D03*
X22445000Y-2225000D03*
%TD*%
M02*
