%TF.GenerationSoftware,KiCad,Pcbnew,7.0.11+dfsg-1build4*%
%TF.CreationDate,2026-09-29T21:21:04+02:00*%
%TF.ProjectId,RetroPower_Integrated,52657472-6f50-46f7-9765-725f496e7465,rev?*%
%TF.SameCoordinates,Original*%
%TF.FileFunction,Copper,L1,Top*%
%TF.FilePolarity,Positive*%
%FSLAX46Y46*%
G04 Gerber Fmt 4.6, Leading zero omitted, Abs format (unit mm)*
G04 Created by KiCad (PCBNEW 7.0.11+dfsg-1build4) date 2026-09-29 21:21:04*
%MOMM*%
%LPD*%
G01*
G04 APERTURE LIST*
G04 Aperture macros list*
%AMRoundRect*
0 Rectangle with rounded corners*
0 $1 Rounding radius*
0 $2 $3 $4 $5 $6 $7 $8 $9 X,Y pos of 4 corners*
0 Add a 4 corners polygon primitive as box body*
4,1,4,$2,$3,$4,$5,$6,$7,$8,$9,$2,$3,0*
0 Add four circle primitives for the rounded corners*
1,1,$1+$1,$2,$3*
1,1,$1+$1,$4,$5*
1,1,$1+$1,$6,$7*
1,1,$1+$1,$8,$9*
0 Add four rect primitives between the rounded corners*
20,1,$1+$1,$2,$3,$4,$5,0*
20,1,$1+$1,$4,$5,$6,$7,0*
20,1,$1+$1,$6,$7,$8,$9,0*
20,1,$1+$1,$8,$9,$2,$3,0*%
G04 Aperture macros list end*
%TA.AperFunction,SMDPad,CuDef*%
%ADD10RoundRect,0.150000X0.150000X-0.587500X0.150000X0.587500X-0.150000X0.587500X-0.150000X-0.587500X0*%
%TD*%
%TA.AperFunction,SMDPad,CuDef*%
%ADD11RoundRect,0.225000X-0.225000X-0.375000X0.225000X-0.375000X0.225000X0.375000X-0.225000X0.375000X0*%
%TD*%
%TA.AperFunction,ComponentPad*%
%ADD12R,1.700000X1.700000*%
%TD*%
%TA.AperFunction,ComponentPad*%
%ADD13O,1.700000X1.700000*%
%TD*%
%TA.AperFunction,SMDPad,CuDef*%
%ADD14RoundRect,0.250000X0.450000X-0.262500X0.450000X0.262500X-0.450000X0.262500X-0.450000X-0.262500X0*%
%TD*%
%TA.AperFunction,SMDPad,CuDef*%
%ADD15RoundRect,0.250000X-1.500000X-0.550000X1.500000X-0.550000X1.500000X0.550000X-1.500000X0.550000X0*%
%TD*%
%TA.AperFunction,SMDPad,CuDef*%
%ADD16RoundRect,0.250000X-0.250000X-0.475000X0.250000X-0.475000X0.250000X0.475000X-0.250000X0.475000X0*%
%TD*%
%TA.AperFunction,ComponentPad*%
%ADD17R,1.600000X1.600000*%
%TD*%
%TA.AperFunction,ComponentPad*%
%ADD18O,1.600000X1.600000*%
%TD*%
%TA.AperFunction,ComponentPad*%
%ADD19C,1.700000*%
%TD*%
%TA.AperFunction,ViaPad*%
%ADD20C,0.800000*%
%TD*%
%TA.AperFunction,Conductor*%
%ADD21C,0.350000*%
%TD*%
G04 APERTURE END LIST*
D10*
%TO.P,Q2,1*%
%TO.N,Q2_GATE*%
X37060000Y-21912500D03*
%TO.P,Q2,2*%
%TO.N,GND*%
X38960000Y-21912500D03*
%TO.P,Q2,3*%
%TO.N,COIL_RESET_B*%
X38010000Y-20037500D03*
%TD*%
D11*
%TO.P,D2,1*%
%TO.N,COIL_RESET_B*%
X34360000Y-28475000D03*
%TO.P,D2,2*%
%TO.N,3V3*%
X37660000Y-28475000D03*
%TD*%
D12*
%TO.P,J6,1*%
%TO.N,SENSE_MID*%
X50010000Y-25975000D03*
D13*
%TO.P,J6,2*%
%TO.N,GND*%
X50010000Y-28515000D03*
%TD*%
D10*
%TO.P,Q1,1*%
%TO.N,Q1_GATE*%
X37060000Y-9912500D03*
%TO.P,Q1,2*%
%TO.N,GND*%
X38960000Y-9912500D03*
%TO.P,Q1,3*%
%TO.N,COIL_SET_B*%
X38010000Y-8037500D03*
%TD*%
D14*
%TO.P,R1,1*%
%TO.N,SET_CTRL*%
X49010000Y-4887500D03*
%TO.P,R1,2*%
%TO.N,Q1_GATE*%
X49010000Y-3062500D03*
%TD*%
%TO.P,R2,1*%
%TO.N,RESET_CTRL*%
X43010000Y-18887500D03*
%TO.P,R2,2*%
%TO.N,Q2_GATE*%
X43010000Y-17062500D03*
%TD*%
D12*
%TO.P,J5,1*%
%TO.N,SW2_COM*%
X50010000Y-16975000D03*
D13*
%TO.P,J5,2*%
%TO.N,SW2_NC*%
X50010000Y-19515000D03*
%TO.P,J5,3*%
%TO.N,SW2_NO*%
X50010000Y-22055000D03*
%TD*%
D15*
%TO.P,C1,1*%
%TO.N,3V3*%
X16410000Y-23375000D03*
%TO.P,C1,2*%
%TO.N,GND*%
X22010000Y-23375000D03*
%TD*%
D16*
%TO.P,C2,1*%
%TO.N,3V3*%
X27060000Y-27975000D03*
%TO.P,C2,2*%
%TO.N,GND*%
X28960000Y-27975000D03*
%TD*%
D14*
%TO.P,R3,1*%
%TO.N,Q1_GATE*%
X43010000Y-12887500D03*
%TO.P,R3,2*%
%TO.N,GND*%
X43010000Y-11062500D03*
%TD*%
D12*
%TO.P,J3,1*%
%TO.N,RAW_IN*%
X29940000Y-3325000D03*
D13*
%TO.P,J3,2*%
%TO.N,GND*%
X32480000Y-3325000D03*
%TD*%
D17*
%TO.P,K1,1*%
%TO.N,3V3*%
X26010000Y-6975000D03*
D18*
%TO.P,K1,2*%
X26010000Y-9515000D03*
%TO.P,K1,3*%
%TO.N,N/C*%
X26010000Y-12055000D03*
%TO.P,K1,4*%
%TO.N,SW_COM*%
X26010000Y-14595000D03*
%TO.P,K1,5*%
%TO.N,N/C*%
X26010000Y-17135000D03*
%TO.P,K1,6*%
%TO.N,SW_NC*%
X26010000Y-19675000D03*
%TO.P,K1,7*%
%TO.N,N/C*%
X26010000Y-22215000D03*
%TO.P,K1,8*%
%TO.N,SW_NO*%
X26010000Y-24755000D03*
%TO.P,K1,9*%
%TO.N,SW2_NO*%
X33630000Y-24755000D03*
%TO.P,K1,10*%
%TO.N,N/C*%
X33630000Y-22215000D03*
%TO.P,K1,11*%
%TO.N,SW2_NC*%
X33630000Y-19675000D03*
%TO.P,K1,12*%
%TO.N,N/C*%
X33630000Y-17135000D03*
%TO.P,K1,13*%
%TO.N,SW2_COM*%
X33630000Y-14595000D03*
%TO.P,K1,14*%
%TO.N,N/C*%
X33630000Y-12055000D03*
%TO.P,K1,15*%
%TO.N,COIL_RESET_B*%
X33630000Y-9515000D03*
%TO.P,K1,16*%
%TO.N,COIL_SET_B*%
X33630000Y-6975000D03*
%TD*%
D14*
%TO.P,R4,1*%
%TO.N,Q2_GATE*%
X43010000Y-27887500D03*
%TO.P,R4,2*%
%TO.N,GND*%
X43010000Y-26062500D03*
%TD*%
D12*
%TO.P,J4,1*%
%TO.N,SW_COM*%
X50010000Y-7975000D03*
D13*
%TO.P,J4,2*%
%TO.N,SW_NC*%
X50010000Y-10515000D03*
%TO.P,J4,3*%
%TO.N,SW_NO*%
X50010000Y-13055000D03*
%TD*%
D11*
%TO.P,D1,1*%
%TO.N,COIL_SET_B*%
X40360000Y-3975000D03*
%TO.P,D1,2*%
%TO.N,3V3*%
X43660000Y-3975000D03*
%TD*%
D12*
%TO.P,J2,1*%
%TO.N,3V3*%
X18010000Y-29375000D03*
D13*
%TO.P,J2,2*%
%TO.N,GND*%
X20550000Y-29375000D03*
%TD*%
D11*
%TO.P,D3,1*%
%TO.N,RAW_IN*%
X35320000Y-3975000D03*
%TO.P,D3,2*%
%TO.N,GND*%
X38620000Y-3975000D03*
%TD*%
D12*
%TO.P,U1,1*%
%TO.N,N/C*%
X22445000Y-17465000D03*
D19*
%TO.P,U1,2*%
%TO.N,GND*%
X19905000Y-17465000D03*
%TO.P,U1,3*%
%TO.N,3V3*%
X17365000Y-17465000D03*
%TO.P,U1,4*%
%TO.N,SENSE_MID*%
X14825000Y-17465000D03*
%TO.P,U1,5*%
%TO.N,N/C*%
X12285000Y-17465000D03*
%TO.P,U1,6*%
X9745000Y-17465000D03*
%TO.P,U1,7*%
%TO.N,SET_CTRL*%
X7205000Y-17465000D03*
%TO.P,U1,8*%
%TO.N,N/C*%
X4665000Y-17465000D03*
%TO.P,U1,9*%
X2125000Y-17465000D03*
%TO.P,U1,10*%
X2125000Y-2225000D03*
%TO.P,U1,11*%
X4665000Y-2225000D03*
%TO.P,U1,12*%
X7205000Y-2225000D03*
%TO.P,U1,13*%
X9745000Y-2225000D03*
%TO.P,U1,14*%
%TO.N,RESET_CTRL*%
X12285000Y-2225000D03*
%TO.P,U1,15*%
%TO.N,N/C*%
X14825000Y-2225000D03*
%TO.P,U1,16*%
X17365000Y-2225000D03*
%TO.P,U1,17*%
X19905000Y-2225000D03*
%TO.P,U1,18*%
X22445000Y-2225000D03*
%TD*%
D20*
%TO.N,GND*%
X38600000Y-4000000D03*
X39000000Y-9200000D03*
X24200000Y-9600000D03*
X29000000Y-28000000D03*
X22000000Y-27000000D03*
X26400000Y-29400000D03*
%TO.N,RESET_CTRL*%
X43000000Y-18600000D03*
%TO.N,Q1_GATE*%
X43000000Y-12200000D03*
X49000000Y-3000000D03*
%TO.N,Q2_GATE*%
X50500000Y-31800000D03*
X37100000Y-21900000D03*
X40300000Y-21400000D03*
X43300000Y-14400000D03*
%TO.N,SW_COM*%
X42600000Y-23800000D03*
X44600000Y-14000000D03*
X33400000Y-27200000D03*
X37400000Y-26200000D03*
X39400000Y-24200000D03*
%TO.N,SW_NC*%
X26400000Y-20600000D03*
X29400000Y-25200000D03*
X33000000Y-28200000D03*
%TO.N,SW_NO*%
X24200000Y-24800000D03*
X49800000Y-31000000D03*
X19000000Y-25600000D03*
X19000000Y-19800000D03*
%TO.N,SW2_COM*%
X49200000Y-17600000D03*
%TO.N,SW2_NC*%
X49200000Y-20200000D03*
%TO.N,SW2_NO*%
X49200000Y-22800000D03*
%TO.N,RAW_IN*%
X30800000Y-2600000D03*
X34400000Y-3000000D03*
%TO.N,SENSE_MID*%
X49200000Y-25200000D03*
%TD*%
D21*
%TO.N,3V3*%
X17600000Y-17400000D02*
X18800000Y-16200000D01*
X27600000Y-29000000D02*
X27600000Y-28800000D01*
X25800000Y-9800000D02*
X26010000Y-9515000D01*
X27060000Y-27975000D02*
X26800000Y-28000000D01*
X19200000Y-16000000D02*
X19600000Y-16000000D01*
X42200000Y-2600000D02*
X43400000Y-3800000D01*
X26010000Y-9515000D02*
X26000000Y-9400000D01*
X17200000Y-17600000D02*
X17365000Y-17465000D01*
X35200000Y-29800000D02*
X28400000Y-29800000D01*
X19000000Y-16200000D02*
X19200000Y-16000000D01*
X27600000Y-28800000D02*
X27400000Y-28600000D01*
X27400000Y-28600000D02*
X27400000Y-28400000D01*
X26200000Y-7000000D02*
X31400000Y-7000000D01*
X18000000Y-29200000D02*
X18000000Y-25000000D01*
X27200000Y-28200000D02*
X27060000Y-27975000D01*
X26800000Y-28000000D02*
X21200000Y-28000000D01*
X18010000Y-29375000D02*
X18000000Y-29200000D01*
X36800000Y-3600000D02*
X37600000Y-2800000D01*
X26000000Y-9400000D02*
X26000000Y-7200000D01*
X37600000Y-2800000D02*
X37800000Y-2800000D01*
X26010000Y-6975000D02*
X26200000Y-7000000D01*
X37660000Y-28475000D02*
X37400000Y-28400000D01*
X36600000Y-4800000D02*
X36600000Y-4600000D01*
X35800000Y-5600000D02*
X36600000Y-4800000D01*
X16400000Y-23200000D02*
X16400000Y-18400000D01*
X16400000Y-18400000D02*
X17200000Y-17600000D01*
X21000000Y-27800000D02*
X19600000Y-27800000D01*
X36600000Y-4600000D02*
X36800000Y-4400000D01*
X32800000Y-5600000D02*
X35800000Y-5600000D01*
X16600000Y-23600000D02*
X16410000Y-23375000D01*
X36800000Y-4400000D02*
X36800000Y-3600000D01*
X18800000Y-16200000D02*
X19000000Y-16200000D01*
X36600000Y-28400000D02*
X35200000Y-29800000D01*
X27400000Y-28400000D02*
X27200000Y-28200000D01*
X21200000Y-28000000D02*
X21000000Y-27800000D01*
X18200000Y-29200000D02*
X18010000Y-29375000D01*
X19600000Y-16000000D02*
X25800000Y-9800000D01*
X18000000Y-25000000D02*
X16600000Y-23600000D01*
X26000000Y-7200000D02*
X26010000Y-6975000D01*
X38000000Y-2600000D02*
X42200000Y-2600000D01*
X19600000Y-27800000D02*
X18200000Y-29200000D01*
X31400000Y-7000000D02*
X32800000Y-5600000D01*
X28400000Y-29800000D02*
X27600000Y-29000000D01*
X17365000Y-17465000D02*
X17600000Y-17400000D01*
X43400000Y-3800000D02*
X43660000Y-3975000D01*
X16410000Y-23375000D02*
X16400000Y-23200000D01*
X37400000Y-28400000D02*
X36600000Y-28400000D01*
X37800000Y-2800000D02*
X38000000Y-2600000D01*
%TO.N,GND*%
X43200000Y-11200000D02*
X43010000Y-11062500D01*
X38620000Y-3975000D02*
X38600000Y-4000000D01*
X48800000Y-27600000D02*
X49000000Y-27600000D01*
X22010000Y-23375000D02*
X22000000Y-23600000D01*
X43800000Y-11400000D02*
X43400000Y-11400000D01*
X38960000Y-9912500D02*
X39000000Y-9800000D01*
X30600000Y-5200000D02*
X25000000Y-5200000D01*
X25000000Y-5200000D02*
X24600000Y-5600000D01*
X43010000Y-11062500D02*
X42800000Y-11000000D01*
X39200000Y-10200000D02*
X38960000Y-9912500D01*
X31000000Y-5000000D02*
X30800000Y-5000000D01*
X20800000Y-29400000D02*
X26400000Y-29400000D01*
X50000000Y-28200000D02*
X48200000Y-26400000D01*
X24200000Y-6400000D02*
X24200000Y-9600000D01*
X38960000Y-21912500D02*
X39200000Y-22200000D01*
X32479999Y-3325000D02*
X32400000Y-3600000D01*
X24600000Y-5800000D02*
X24400000Y-6000000D01*
X20000000Y-21400000D02*
X21800000Y-23200000D01*
X29000000Y-28000000D02*
X28960000Y-27975000D01*
X24400000Y-6200000D02*
X24200000Y-6400000D01*
X43400000Y-11400000D02*
X43200000Y-11200000D01*
X48200000Y-15800000D02*
X43800000Y-11400000D01*
X40000000Y-11000000D02*
X39200000Y-10200000D01*
X49000000Y-27600000D02*
X49800000Y-28400000D01*
X30800000Y-5000000D02*
X30600000Y-5200000D01*
X43200000Y-26000000D02*
X47200000Y-26000000D01*
X49800000Y-28400000D02*
X50010000Y-28515000D01*
X39200000Y-22200000D02*
X42800000Y-25800000D01*
X39000000Y-9800000D02*
X39000000Y-9200000D01*
X38600000Y-4000000D02*
X38620000Y-3975000D01*
X24600000Y-5600000D02*
X24600000Y-5800000D01*
X21800000Y-23200000D02*
X22010000Y-23375000D01*
X50000000Y-28400000D02*
X50000000Y-28200000D01*
X32400000Y-3600000D02*
X31000000Y-5000000D01*
X19905000Y-17465000D02*
X20000000Y-17600000D01*
X20000000Y-17600000D02*
X20000000Y-21400000D01*
X47200000Y-26000000D02*
X48800000Y-27600000D01*
X22000000Y-23600000D02*
X22000000Y-27000000D01*
X42800000Y-25800000D02*
X43010000Y-26062500D01*
X24400000Y-6000000D02*
X24400000Y-6200000D01*
X48200000Y-26400000D02*
X48200000Y-15800000D01*
X50010000Y-28515000D02*
X50000000Y-28400000D01*
X43010000Y-26062500D02*
X43200000Y-26000000D01*
X42800000Y-11000000D02*
X40000000Y-11000000D01*
X20550000Y-29375000D02*
X20800000Y-29400000D01*
%TO.N,SET_CTRL*%
X7400000Y-17200000D02*
X7205000Y-17465000D01*
X30600000Y-1600000D02*
X30400000Y-1400000D01*
X25600000Y-1400000D02*
X23400000Y-3600000D01*
X44200000Y-2600000D02*
X43200000Y-1600000D01*
X23000000Y-3800000D02*
X20800000Y-3800000D01*
X23200000Y-3600000D02*
X23000000Y-3800000D01*
X49010000Y-4887500D02*
X48800000Y-4800000D01*
X48800000Y-4800000D02*
X46600000Y-4800000D01*
X30400000Y-1400000D02*
X25600000Y-1400000D01*
X43200000Y-1600000D02*
X30600000Y-1600000D01*
X20800000Y-3800000D02*
X7400000Y-17200000D01*
X23400000Y-3600000D02*
X23200000Y-3600000D01*
X44400000Y-2600000D02*
X44200000Y-2600000D01*
X46600000Y-4800000D02*
X44400000Y-2600000D01*
%TO.N,RESET_CTRL*%
X43010000Y-18887500D02*
X43000000Y-18600000D01*
%TO.N,Q1_GATE*%
X42200000Y-12400000D02*
X42400000Y-12600000D01*
X43010000Y-12887500D02*
X43000000Y-12600000D01*
X38000000Y-11200000D02*
X38200000Y-11200000D01*
X39000000Y-12000000D02*
X41600000Y-12000000D01*
X38200000Y-11200000D02*
X39000000Y-12000000D01*
X43000000Y-12600000D02*
X43000000Y-12200000D01*
X37000000Y-10200000D02*
X38000000Y-11200000D01*
X37060000Y-9912500D02*
X37000000Y-10200000D01*
X49000000Y-3000000D02*
X49010000Y-3062500D01*
X42400000Y-12600000D02*
X42800000Y-12600000D01*
X41600000Y-12000000D02*
X42000000Y-12400000D01*
X42000000Y-12400000D02*
X42200000Y-12400000D01*
X42800000Y-12600000D02*
X43010000Y-12887500D01*
%TO.N,Q2_GATE*%
X37060000Y-21912500D02*
X37100000Y-21900000D01*
X50300000Y-31900000D02*
X50200000Y-32000000D01*
X41600000Y-18400000D02*
X41500000Y-18500000D01*
X50200000Y-32000000D02*
X47100000Y-32000000D01*
X37100000Y-21900000D02*
X37060000Y-21912500D01*
X41500000Y-20200000D02*
X40300000Y-21400000D01*
X40300000Y-17400000D02*
X43300000Y-14400000D01*
X41500000Y-18500000D02*
X41500000Y-20200000D01*
X42600000Y-17100000D02*
X41800000Y-17900000D01*
X43100000Y-28000000D02*
X43010000Y-27887500D01*
X42900000Y-17100000D02*
X42600000Y-17100000D01*
X40300000Y-21400000D02*
X40300000Y-17400000D01*
X41600000Y-18200000D02*
X41600000Y-18400000D01*
X41800000Y-18000000D02*
X41600000Y-18200000D01*
X41800000Y-17900000D02*
X41800000Y-18000000D01*
X50500000Y-31800000D02*
X50400000Y-31900000D01*
X47100000Y-32000000D02*
X43100000Y-28000000D01*
X43010000Y-17062500D02*
X42900000Y-17100000D01*
X50400000Y-31900000D02*
X50300000Y-31900000D01*
%TO.N,COIL_SET_B*%
X33800000Y-7000000D02*
X37800000Y-7000000D01*
X40000000Y-4600000D02*
X40000000Y-4400000D01*
X34600000Y-8000000D02*
X33800000Y-7200000D01*
X37800000Y-7000000D02*
X39800000Y-5000000D01*
X40000000Y-4400000D02*
X40200000Y-4200000D01*
X39800000Y-5000000D02*
X39800000Y-4800000D01*
X37800000Y-8000000D02*
X34600000Y-8000000D01*
X33630000Y-6975000D02*
X33800000Y-7000000D01*
X39800000Y-4800000D02*
X40000000Y-4600000D01*
X38010000Y-8037500D02*
X37800000Y-8000000D01*
X40200000Y-4200000D02*
X40360000Y-3975000D01*
X33800000Y-7200000D02*
X33630000Y-6975000D01*
%TO.N,COIL_RESET_B*%
X35600000Y-21200000D02*
X35600000Y-27200000D01*
X33800000Y-9800000D02*
X33630000Y-9515000D01*
X34400000Y-28200000D02*
X34400000Y-26200000D01*
X37800000Y-20000000D02*
X36800000Y-20000000D01*
X35200000Y-25000000D02*
X35200000Y-11200000D01*
X34360000Y-28475000D02*
X34400000Y-28200000D01*
X35600000Y-27200000D02*
X34600000Y-28200000D01*
X35000000Y-25600000D02*
X35000000Y-25200000D01*
X34600000Y-28200000D02*
X34360000Y-28475000D01*
X34400000Y-26200000D02*
X35000000Y-25600000D01*
X38010000Y-20037500D02*
X37800000Y-20000000D01*
X36800000Y-20000000D02*
X35600000Y-21200000D01*
X35000000Y-25200000D02*
X35200000Y-25000000D01*
X35200000Y-11200000D02*
X33800000Y-9800000D01*
%TO.N,SW_COM*%
X27400000Y-16400000D02*
X27400000Y-21200000D01*
X26010000Y-14595000D02*
X26000000Y-14800000D01*
X26000000Y-14800000D02*
X27200000Y-16000000D01*
X42600000Y-23800000D02*
X42600000Y-21600000D01*
X44400000Y-19600000D02*
X44600000Y-19400000D01*
X27200000Y-16200000D02*
X27400000Y-16400000D01*
X44400000Y-19800000D02*
X44400000Y-19600000D01*
X42600000Y-21600000D02*
X44400000Y-19800000D01*
X37400000Y-26200000D02*
X39400000Y-24200000D01*
X44600000Y-19400000D02*
X44600000Y-14000000D01*
X27400000Y-21200000D02*
X33400000Y-27200000D01*
X27200000Y-16000000D02*
X27200000Y-16200000D01*
%TO.N,SW_NC*%
X26010000Y-19675000D02*
X26000000Y-19800000D01*
X32400000Y-28200000D02*
X33000000Y-28200000D01*
X26000000Y-19800000D02*
X26000000Y-20200000D01*
X29400000Y-25200000D02*
X32400000Y-28200000D01*
X26000000Y-20200000D02*
X26400000Y-20600000D01*
%TO.N,SW_NO*%
X51600000Y-27000000D02*
X51800000Y-26800000D01*
X51800000Y-14800000D02*
X50200000Y-13200000D01*
X51800000Y-26800000D02*
X51800000Y-14800000D01*
X51600000Y-29000000D02*
X51600000Y-27000000D01*
X19000000Y-19800000D02*
X19000000Y-25600000D01*
X49800000Y-31000000D02*
X51400000Y-29400000D01*
X50200000Y-13200000D02*
X50010000Y-13055000D01*
X51400000Y-29200000D02*
X51600000Y-29000000D01*
X25800000Y-24800000D02*
X24200000Y-24800000D01*
X51400000Y-29400000D02*
X51400000Y-29200000D01*
X26010000Y-24755000D02*
X25800000Y-24800000D01*
%TO.N,SW2_COM*%
X50010000Y-16975000D02*
X49800000Y-17000000D01*
X49800000Y-17000000D02*
X49200000Y-17600000D01*
%TO.N,SW2_NC*%
X50010000Y-19515000D02*
X49800000Y-19600000D01*
X49800000Y-19600000D02*
X49200000Y-20200000D01*
%TO.N,SW2_NO*%
X49800000Y-22200000D02*
X49200000Y-22800000D01*
X50010000Y-22055000D02*
X49800000Y-22200000D01*
%TO.N,RAW_IN*%
X35200000Y-3800000D02*
X35320000Y-3975000D01*
X30200000Y-3200000D02*
X30800000Y-2600000D01*
X29940000Y-3325000D02*
X30200000Y-3200000D01*
X34400000Y-3000000D02*
X35200000Y-3800000D01*
%TO.N,SENSE_MID*%
X50010000Y-25975000D02*
X49800000Y-25800000D01*
X49800000Y-25800000D02*
X49200000Y-25200000D01*
%TD*%
M02*
