M48
; DRILL file {KiCad 7.0.11+dfsg-1build4} date Tue Sep 29 21:21:04 2026
; FORMAT={-:-/ absolute / metric / decimal}
; #@! TF.CreationDate,2026-09-29T21:21:04+02:00
; #@! TF.GenerationSoftware,Kicad,Pcbnew,7.0.11+dfsg-1build4
; #@! TF.FileFunction,MixedPlating,1,2
FMAT,2
METRIC
; #@! TA.AperFunction,Plated,PTH,ViaDrill
T1C0.400
; #@! TA.AperFunction,Plated,PTH,ComponentDrill
T2C0.800
; #@! TA.AperFunction,Plated,PTH,ComponentDrill
T3C1.000
%
G90
G05
T1
X19.0Y-19.8
X19.0Y-25.6
X22.0Y-27.0
X24.2Y-9.6
X24.2Y-24.8
X26.4Y-20.6
X26.4Y-29.4
X29.0Y-28.0
X29.4Y-25.2
X30.8Y-2.6
X33.0Y-28.2
X33.4Y-27.2
X34.4Y-3.0
X37.1Y-21.9
X37.4Y-26.2
X38.6Y-4.0
X39.0Y-9.2
X39.4Y-24.2
X40.3Y-21.4
X42.6Y-23.8
X43.0Y-12.2
X43.0Y-18.6
X43.3Y-14.4
X44.6Y-14.0
X49.0Y-3.0
X49.2Y-17.6
X49.2Y-20.2
X49.2Y-22.8
X49.2Y-25.2
X49.8Y-31.0
X50.5Y-31.8
T2
X26.01Y-6.975
X26.01Y-9.515
X26.01Y-12.055
X26.01Y-14.595
X26.01Y-17.135
X26.01Y-19.675
X26.01Y-22.215
X26.01Y-24.755
X33.63Y-6.975
X33.63Y-9.515
X33.63Y-12.055
X33.63Y-14.595
X33.63Y-17.135
X33.63Y-19.675
X33.63Y-22.215
X33.63Y-24.755
T3
X2.125Y-2.225
X2.125Y-17.465
X4.665Y-2.225
X4.665Y-17.465
X7.205Y-2.225
X7.205Y-17.465
X9.745Y-2.225
X9.745Y-17.465
X12.285Y-2.225
X12.285Y-17.465
X14.825Y-2.225
X14.825Y-17.465
X17.365Y-2.225
X17.365Y-17.465
X18.01Y-29.375
X19.905Y-2.225
X19.905Y-17.465
X20.55Y-29.375
X22.445Y-2.225
X22.445Y-17.465
X29.94Y-3.325
X32.48Y-3.325
X50.01Y-7.975
X50.01Y-10.515
X50.01Y-13.055
X50.01Y-16.975
X50.01Y-19.515
X50.01Y-22.055
X50.01Y-25.975
X50.01Y-28.515
M30
